<mxfile host="app.diagrams.net" modified="2022-04-16T23:13:54.307Z" agent="5.0 (Windows NT 10.0; Win64; x64) AppleWebKit/537.36 (KHTML, like Gecko) Chrome/100.0.4896.88 Safari/537.36" etag="0XLKss0a1GBQSRCYfYsO" version="17.2.6" type="github">
  <diagram id="b-UnWIH4atwv8iLFIvXK" name="Page-1">
    <mxGraphModel dx="2980" dy="898" grid="1" gridSize="10" guides="1" tooltips="1" connect="1" arrows="1" fold="1" page="1" pageScale="1" pageWidth="850" pageHeight="1100" math="0" shadow="0">
      <root>
        <mxCell id="0" />
        <mxCell id="1" parent="0" />
        <mxCell id="N7Z78QBXYidxXE_QdMGI-43" value="" style="rounded=0;whiteSpace=wrap;html=1;fontSize=24;" parent="1" vertex="1">
          <mxGeometry x="-210" y="170" width="1220" height="640" as="geometry" />
        </mxCell>
        <mxCell id="N7Z78QBXYidxXE_QdMGI-9" value="" style="whiteSpace=wrap;html=1;aspect=fixed;" parent="1" vertex="1">
          <mxGeometry x="-815" y="355" width="350" height="350" as="geometry" />
        </mxCell>
        <mxCell id="N7Z78QBXYidxXE_QdMGI-3" value="" style="shape=image;verticalLabelPosition=bottom;labelBackgroundColor=default;verticalAlign=top;aspect=fixed;imageAspect=0;image=https://s3.ap-southeast-1.amazonaws.com/arrowhitech.com/wp-content/uploads/2021/01/28022001/main-qimg-e4fbdfc3c3ea08458cf3279cae11995e.png;" parent="1" vertex="1">
          <mxGeometry x="-770" y="400" width="260" height="260" as="geometry" />
        </mxCell>
        <mxCell id="N7Z78QBXYidxXE_QdMGI-4" value="" style="shape=image;verticalLabelPosition=bottom;labelBackgroundColor=default;verticalAlign=top;aspect=fixed;imageAspect=0;image=https://miro.medium.com/max/401/0*rOjzHpnCXl4iklVC.png;" parent="1" vertex="1">
          <mxGeometry x="-240" y="330" width="296.46" height="190" as="geometry" />
        </mxCell>
        <mxCell id="N7Z78QBXYidxXE_QdMGI-5" value="" style="shape=image;verticalLabelPosition=bottom;labelBackgroundColor=default;verticalAlign=top;aspect=fixed;imageAspect=0;image=https://miro.medium.com/max/400/1*ZjS_BtHvohZJc6lqHOsdJw.png;" parent="1" vertex="1">
          <mxGeometry x="-181.66" y="610" width="179.78" height="160" as="geometry" />
        </mxCell>
        <mxCell id="N7Z78QBXYidxXE_QdMGI-7" value="" style="shape=image;verticalLabelPosition=bottom;labelBackgroundColor=default;verticalAlign=top;aspect=fixed;imageAspect=0;image=https://prodcdataumbraco.blob.core.windows.net/media/media/i3nhanbw/20191018-dynamodb-performance-0.png;" parent="1" vertex="1">
          <mxGeometry x="270" y="170" width="210" height="140" as="geometry" />
        </mxCell>
        <mxCell id="N7Z78QBXYidxXE_QdMGI-10" value="&lt;font style=&quot;font-size: 24px&quot;&gt;Android Client&lt;/font&gt;" style="text;html=1;strokeColor=none;fillColor=none;align=center;verticalAlign=middle;whiteSpace=wrap;rounded=0;" parent="1" vertex="1">
          <mxGeometry x="-815" y="320" width="200" height="20" as="geometry" />
        </mxCell>
        <mxCell id="N7Z78QBXYidxXE_QdMGI-12" value="" style="endArrow=classic;html=1;rounded=0;fontSize=24;exitX=1.009;exitY=0.179;exitDx=0;exitDy=0;exitPerimeter=0;" parent="1" source="N7Z78QBXYidxXE_QdMGI-9" edge="1">
          <mxGeometry width="50" height="50" relative="1" as="geometry">
            <mxPoint x="-180" y="470" as="sourcePoint" />
            <mxPoint x="-150" y="420" as="targetPoint" />
          </mxGeometry>
        </mxCell>
        <mxCell id="N7Z78QBXYidxXE_QdMGI-13" value="" style="endArrow=classic;html=1;rounded=0;fontSize=24;exitX=0.27;exitY=0.263;exitDx=0;exitDy=0;exitPerimeter=0;" parent="1" source="N7Z78QBXYidxXE_QdMGI-4" edge="1">
          <mxGeometry width="50" height="50" relative="1" as="geometry">
            <mxPoint x="-180" y="470" as="sourcePoint" />
            <mxPoint x="-460" y="380" as="targetPoint" />
          </mxGeometry>
        </mxCell>
        <mxCell id="N7Z78QBXYidxXE_QdMGI-14" value="GET" style="text;html=1;strokeColor=none;fillColor=none;align=center;verticalAlign=middle;whiteSpace=wrap;rounded=0;fontSize=24;" parent="1" vertex="1">
          <mxGeometry x="-320" y="340" width="70" height="40" as="geometry" />
        </mxCell>
        <mxCell id="N7Z78QBXYidxXE_QdMGI-15" value="POST" style="text;html=1;strokeColor=none;fillColor=none;align=center;verticalAlign=middle;whiteSpace=wrap;rounded=0;fontSize=24;" parent="1" vertex="1">
          <mxGeometry x="-315" y="420" width="60" height="30" as="geometry" />
        </mxCell>
        <mxCell id="N7Z78QBXYidxXE_QdMGI-17" value="" style="endArrow=classic;startArrow=classic;html=1;rounded=0;fontSize=24;entryX=0;entryY=0.25;entryDx=0;entryDy=0;" parent="1" target="N7Z78QBXYidxXE_QdMGI-5" edge="1">
          <mxGeometry width="50" height="50" relative="1" as="geometry">
            <mxPoint x="-460" y="650" as="sourcePoint" />
            <mxPoint x="-130" y="670" as="targetPoint" />
          </mxGeometry>
        </mxCell>
        <mxCell id="N7Z78QBXYidxXE_QdMGI-18" value="AUTHENTICATION" style="text;html=1;strokeColor=none;fillColor=none;align=center;verticalAlign=middle;whiteSpace=wrap;rounded=0;fontSize=24;" parent="1" vertex="1">
          <mxGeometry x="-330" y="610" width="60" height="30" as="geometry" />
        </mxCell>
        <mxCell id="N7Z78QBXYidxXE_QdMGI-20" value="" style="endArrow=classic;startArrow=classic;html=1;rounded=0;fontSize=24;entryX=0.5;entryY=1;entryDx=0;entryDy=0;exitX=0.5;exitY=0;exitDx=0;exitDy=0;" parent="1" source="N7Z78QBXYidxXE_QdMGI-5" target="N7Z78QBXYidxXE_QdMGI-4" edge="1">
          <mxGeometry width="50" height="50" relative="1" as="geometry">
            <mxPoint x="-180" y="590" as="sourcePoint" />
            <mxPoint x="-130" y="540" as="targetPoint" />
          </mxGeometry>
        </mxCell>
        <mxCell id="N7Z78QBXYidxXE_QdMGI-21" value="" style="endArrow=classic;startArrow=classic;html=1;rounded=0;fontSize=24;entryX=0;entryY=0.5;entryDx=0;entryDy=0;exitX=0.675;exitY=0.368;exitDx=0;exitDy=0;exitPerimeter=0;" parent="1" source="N7Z78QBXYidxXE_QdMGI-4" target="N7Z78QBXYidxXE_QdMGI-7" edge="1">
          <mxGeometry width="50" height="50" relative="1" as="geometry">
            <mxPoint x="-180" y="590" as="sourcePoint" />
            <mxPoint x="-130" y="540" as="targetPoint" />
          </mxGeometry>
        </mxCell>
        <mxCell id="N7Z78QBXYidxXE_QdMGI-23" value="AWS Service" style="text;html=1;strokeColor=none;fillColor=none;align=center;verticalAlign=middle;whiteSpace=wrap;rounded=0;fontSize=24;" parent="1" vertex="1">
          <mxGeometry x="-190" y="280" width="190" height="30" as="geometry" />
        </mxCell>
        <mxCell id="N7Z78QBXYidxXE_QdMGI-24" value="GET/POST&amp;nbsp;" style="text;html=1;strokeColor=none;fillColor=none;align=center;verticalAlign=middle;whiteSpace=wrap;rounded=0;fontSize=24;" parent="1" vertex="1">
          <mxGeometry x="120" y="250" width="60" height="30" as="geometry" />
        </mxCell>
        <mxCell id="N7Z78QBXYidxXE_QdMGI-28" value="" style="shape=image;verticalLabelPosition=bottom;labelBackgroundColor=default;verticalAlign=top;aspect=fixed;imageAspect=0;image=data:image/png,iVBORw0KGgoAAAANSUhEUgAAAUAAAAEDCAYAAABEXN1oAAAAAXNSR0IArs4c6QAAAARnQU1BAACxjwv8YQUAAAAJcEhZcwAAEnQAABJ0Ad5mH3gAALaZSURBVHhe7L0HgFxXfTV+Xp22vUorrXrvVrXcLRcMphgMBuPQQ4BAQnpCypeefP8kfCmk00KHYIoBG9y7ZFmWrN67tCq72r5TX5n/+d3ZtVerN/aOtli23hldzezMe7ffc8/vtqe96f/Ny6MY8hr/Ezcc5KHp/R/HCZo23LiNDkYcHnO6lCzK6yNPn168dC+AL/8FBBmUbo3+jjR2xcMLiHSJeVcM411niuF1V3dLxOslPO3WfygQYCB5ldB46EP/+xAwYoG/BFXyMcRYFsiw/S4xySXFWC4OikcJYZYcXqDnwTRVWvUK+EWFd2EMNV5bUrxHAW8UMhnvdAgutbxjvXyFC+Sn4TpVaQN+UHU54PvLEUHZ8Aou4KuiriiCLi7mBn18NacKNuiHIFcEQZcW3IUvZY1IZR7qQoQYAUbDqnhV5PP5C1yIECFCvNYYFwIMESJEiEsRY06AQepPXIgQIUK81ggVYIgQIS5baLf+w/xXlGOBsyiaWsAwMuSHz71aKWs5SsRrMRMWhJHGo9iyFL+It2MVXhCo+ZEPnPXXGI8L68FoFHfwEiLx+ELPS0lLMbxR6tErYbzTOB7hhQowRIgQly1CAgwRIsRli5AAQ4QIcdkiJMAQIUJctnjVSZBAFNnGVnTIMugHtc94mChxLHS8x6MvhcHhIkVSNJuDvi5WEQLTV2TiINjfwusC0F+1y2MIgvwoIPiXwDCLenJhPIpdWjweI8d415kgjGUcLoU2MRxcnAKU2hXklHdDXRGoqbdhuqCwirnLFEFZIS4QAVksLoijiiIgrGLhCcnpQS/eEBQPv8hraFjiiiHI34KTMM93vjjG8XwX4nLAKzBUiBAhQryxERJgiBAhLluEBBgiRIjLFiEBhggR4rKFdsvfv8KJ0MTIZ3OCvQ/2V0ap+z8ORtEYBvF3KeERMjI+RrhkZ8JeKckBXhTLonzQtYEFGAy5MujqwBljhRIiF1A3iocXhOCDVvNF8lh/xUwdGS7ZejRKGO/wBmMcFKAkrhQXgGFeVkDQxcXcZYqgrBhwARjmZQUEXVzMFYGQaPCriBdBPwS4V6LVC13wtwrSYIe6EK9LhCZwiBAhLluEBBgiRIjLFiEBhggR4rJFSIAhQoS4bPGqs8BBeC1nbV5Gic8hLuEAVkFgGkfjINgiuDTydPjx0HQPOp3PLNF8loVsK+Mr55niifJH+aQ+A55c67mQc0oNg1VO3WPxbxN52YpGj+RwVEM34MJRYZwH3lJKCQYfBCtVPai66yq+56HE8IKgZrMDPFFb8vo/jzbGux693sMbaRmHuEyhexHomXLouQSMfAUbdQKuY7NC+dDzHgy+G2zppnIkPceA6dowvRgMtxyGX8lrLXgkRd93SIpSuX04bro/hBAhxh4hAYa4KPjw4OTTSHtJpP0kXCsHP+rDSpgw4ya0CBWQ5cPVHThaDpqRgcZrYFHd2R5/o2Pt0ykJ5SFZrpelKMzBMIMUWogQY4OQAENcFPI6Cc/OQLddZdKKCUzqQz5J5kvRpaPQMlR7ohBzMeiuqEY6mrp5L0fCSyGbyVABGrCsKE1fWxGh5/GiECHGCeEYYBEEpjEcA3wJuqMj4idQHq1EbflETK6bion1k7Fg9tLC77oOnQWk/COx9SRb0d51Di1nj+PoqSM4deYkUiTQrJZFLpdW44k6zeB8niZxUMGWOCYXjgGOD17v4V0UAZaKscmk4rUo+OtS4lDM4+CsKupzKUGWgJHm5+DHMiuf+r0rmKOAJ7/zg8HGa/G7NElJc0l4ehy1ZXWor27EvMYlWNS8ApPrp6Im0gBTo8qTTiYvsyIF/84DGUme1JanSezBRY7m876OXdh7YicOHduHlnNH0ZU+h75cN/IG/VCPhhOn8aPRTxqFv1X8GYZsxQsKSiCXXAj5NuCXIj1pMQLsn955VSgCDLi0SDUqmpjhhVY6xpu8BJcaYb6OCbA4AsMrRb2pTa7Dj3Nw+ooQwShgpPmpCESlseDXgH9mzofDRuuabPwWU+Dk4KVTKI9T2U1bghWz1mLhhOWYXDkNth6FT7KzeKEovTzJz3UdWDZvHgyGJdcp03YgLCEcvvueQ5LJw/GzOJc8g71tO3Dg9F6s3/UwenJdjEcOkYgNZHlNNgfD4r0kQ0VNvD/ne4qkg/KjlEdrqppxgRe0MC70Vpn6wyXAUpEPijS/KkbEI8VI69HFYLzDfLXwQgIMwmVKgH6vDztGYjIc5FwX1eVNmNQ4A/cs+2VMa5qBSqsWum8xK2Wul16Q64YeXGAy0SICJQwZ0/MLgUG3C+OEhUyh49c5LUNh6CGSj5CwGC7LKJXtw9azG7Bh+9N4fu+zSOY7YCdIk5RNaSejrjOEdCHxoDd6cD6HBPjqGGk9uhiMd5ivFl5IgEF4qaEOD8HpC26Yo4GR5mcxAswaWcBxUGtWYmnzGly38A7MnrQMdWY9dFMG6HgRndyad4XQ+Hc/CZLq+D0VpEY/+jE4mrZa82eQHMWE1VkcGjzfJ5nJWCE/0+72xfRVs8A+2pNnceDsTmzY/zi2HX6ef7fBIDnnZQ0hGcHP5GHRT/V3gE0ZEuCrY6T16GIw3mG+WnghAQbhMiXAMz1nMW/SArxtxR24beG7UYUmkWlAXLVDeHz1P50DpDI2TANOPoueTDs6etrQ3deBF448r5Tf4Bldef7H1OopqK6oRUN1I+prJqIiUgHDj5OoaGsXLmJQOWT4imbLYdLclfHCbvccntv7FJ7e+jh2ndiCjNEHq5xk7PnQHTMkwBFgpPXoYjDeYb5aeCEBBuEyJcB1M2/HVQtvwuLm1UgYFeQYITCHyYjws6saqCi9nt5uHO3ai4Mdu3H81GEcP3MIHb2tSDl98Iyc8kuRYOGDeiedwDYiKI9WqYmUykQ1pjXOw5xJizB3wkLURRoVGQq5+kIEDmAI2VAR5vQcTnUdxaM77sOj2x5Ep3cWOgnS8uR6j0m5sAqHBPjqGGk9uhiMd5ivFp5289/NVbn+WmRGEMYuHkEtQhp//8fzUELrUY0hyJNgP4LTx2vHKNlCRAMwzcIEheZSv9GE9RI5qjQfZck63H39L+PNS9+JaKQMmi5PcZP1eqSGLAmQ38m44KGu7Xhyy8+x/dBmtKbPIsWXT5IUElIqjGlQ6Sv864d86idBiYsikMISmTxdxIyhuaoZi5tWYM38WzC9bhHimozv8TrZEcfb87YPl2Gk3DQ27n8YP33m6zidO4GkloJGlSnjgZaegOt6yPkpxMstOBkJe3h4Oa6D8XK+nQdVfkF3BHewon6Hi/4u4wL091XnITjOY0eWgvHmiPEI7zIiwGAEh1eCelO5N/xqN+LwLgISpuy1FQKSz4ZhwDB1pJNpNJVPw903/DJWTb8R1XYVoyHjc4YixrypKbN3T/s2rN/6GLYefBqd7hmaqik4sgk4YG1lKeUny11cNws966HCrMHkqrmYUDUTt1/9LkytnY64XqHioq6ltx5J1kEfNh97Aj946ptUofvhmRmIUPVypEHLpukM9KW6ECFpDxf93D0sKDIqVoZDQX9LIcAgSPUKIkD5JSgapSjfUlFK2Y4GxiM8Y8YtdX8mH8Y7ccVwaWRyCS1CYfgXj054pUHClIXJAnmXbWjJbC+mxmbjnms/gRvm3464UcnrHPi5PBsRlSJ550jfETy+91F869l/xtZj69GWOQnPcuFoPkmH1wWsnyut/GQckfcYsjIwja5cO03dI9jfchBJvxexeBzlsUqawibjVMgj3bfRUN2M5knT0XamBac6WqBZVLSKJ2VZDCnHp6+yPmaYkBgPO9bq4qCrg5lnVMzlIl4ERWMUQiuKS6Ntji5CAgwM741DgBKe67qwbVspP/ns5FxMTEzBB9d9CjfOfzusTFSpKD9vKTPZ1z3sOr0J9274In76wlfRlWxDNGYgQj/8LP10eJ1GkgwYeyul/DRfiM2myW1RbVJ1qlnkHNrSrdi6dzNazh1HbU096ioamUVyUowQpg6T8awrm4Cmxok40XYCnV3d/NmFbsl6QQexSAJevjABMxxIjIcda3Vx0NUhAY42xiO8kAADw3vjEKCQXuGoqQIRCmZUz8MvXfmruG7BbdDdiDKHxXYSE/lc5gyePPggvv7Ev1L1PYtYBZtwPg6XxOK7HkxDyC/CGPMVMLFUcvnxejVhQtWmzG9NiDAHPQK095zFgaO7oEUd1NfVIUaT2FdjfrIW0EBtWQPqaxrR1dGFc91noNsFM9+jiqU3w4bEeNixVhcHXR0S4GhjPMILCTAwvDcOAQrUvlw6IcDKykrcvOyteOvsXyLpUIHZ/J4v0JlmGg9s+l9889n/Rot7HLFEGbIdVF4xUWgkKVNOd6G5qsmMMEm14P15KKX8dNMhUZHs+ldOqzXN/ByJRJATqWnSMHb7cPj4PvT09GLx1LWIUOVB532KMG3UlzfAimo4dvYQ2vpOwbQsWAaVapFJiSBIjIcda3Vx0NUhAY42xiO8lwiwFIx3RhTD2MWD/srI8xAnCkX9dp6TNyGwYTjVSPrvOQ/8rqTwCm/DgeWRTPJ9MCJ52KkK3D73Q7j7ql9W6+w0g+YuoyR7gHtSXfj79X+Ih3fdj7STRMyIIpvKIlYWoYLMMvpUVTRDZb+vUE8JUSgKUX2ynURWFartcYwHI8Pw5Bsxjwuz1pl8Gkfad6E9cwLTJ6xA3IzxsjQpTsxwC9OqZ6MyWoWn9z4KM+HAOEfijGlUkh69JXHLYayggpU9zXypcUKd90o++8xlQ1M7Vjw6Fb44+cyfhxTJecV5vqPPQxy/VYcy8OcLnLCXXDLY8d8FkO+C3YXhifPFX/52vivcxJ9fNbzRgEqj7PseEp5grMK8WC4ICbAEFA2vpGgM/+LRCM/JU2HRxM1ndKyccQ3uXvdRlEdqKLhIEGkftm2gNXMM9z3/XTy5/SGksylYVFEStpjOatKkBDVVKoZbhrJ75MyZ08hm2zFr0gLEzFqSl65OmqYkxYTqRuStHHYd2Y5otQ09l0NECNQluTo2tWI5LJKlDGL6LpWs4/KdStaT4QExwUkV9CrvkXyZNxZtaF+YbQgktiVkf9GLg9Jdkr9FMEA0QxGUzaMRXlEUSd9YhTncejQUIQGWgKLhlRSN4V88GuH5cvhoVscEuxnvXfdhzKlboiYfKHVgU3X1Oedw/+b/xX3bv4VkNqnMT9nB4ThySrPRH4cLiWC0MOwypGLrSrejrXM3DK0Sk2uXgJY5Yyams6FOqplQMwH7W/bglHsKWs6AS3NaLf0x+C4z3HSGpcOMWDBtE4Zt8W8DWU++p+aMUnUWRCUMWQIk8ngIJLYlZH/Ri4PSXZK/RRASYGkICbAEFA2vpGgM/+LRCM+lrIk7lbhx4Vtw67K3w0+yoZts6DRRcnof1u97GPeu/wbOei2ImFF6LSZoYdJE1F+OSkpNkowRhluGYspFEjZSbieOHG1BY/0UTGqYAAtRxpMqj1xVZldCj+h4fu/zyND0lVFKsaxl9tikUjR8KkG/EuV2LaoTDaiM1anPcApKMZd14fqyJMel+ezSBL9wJkViW0L2F704KN0l+VsEIQGWhpcWQpeCiw1stDHe8QgOj9kXYCoFQl02fDIZcXiEm/ewatJ1+MSbfwtTyubAc6iADPqru3i+5TH8z0P/hl0tLyJeVYY8TUmfJmGBIGleUgmKghJ+GSsMtwxlTE63qE75yvZ1Yl7NPHxg3e9gdfM6tQZQ0xlv10ZHrg1ffuLf8fO9X0PcKIOdK0N9dCIWzViG5fNX03yeg6gdp/qNsDGKEla+41zqLDbtXY+tB5/HvpadONPRgrKGWP/vL0ON9/V/fjVIKRUnpAt/IE+PGDLmeCHYfQR8PxrhBUF5K+O5Q1BK3pWKi+WCi1KAo4GLjfDFYrzDE4xniEIAMplKeuNfYvKxIpIZyqPleOeqD2DZxCv5N4nNkEMKfJzpOY4fPP1VbD35HLSYARsRRXrKL96rdo7wZUdsRYRBGM88laF8WauoGxFEo8CZtmMkdx3zJ6+m2c4vmHiNBG6bEdTXTcKuw09j4cSleOdV9+Cemz6Fa+fdjimVs1CuVSOaL4PpRWHmbUWahhNBuVWDOZMWYPX8q7FsziosnLIMqVQbepO96HX7aCLTZPbNwpghG7fkoTT1vGS66pBK6Nj634dCfAlyxUB92//pZQRdP3rhjQxF++0i9Wik4RXD4HobEuCoQPy+0MljHs//Tt5YCwZ/9Uqu8F8Ahl4opp6rlrUYNArzWhYaic71dUypnoG7r/wEyvUa+PxOxJ/jO1h/8HE8vPle5Mw0DJKKPLKy0JjpnTQDvkuWyV7fYhjPMpRJWdncIU+c8xymw46hI3sW1ZFJmNM0G7ZrMs28gK48Xocl06/A1fNuxZyGJYjr5byfapamrex2kUXTkl+ynIbsB82S9Ye8V7bdORbqE42YNWEOpk+YyetstPd1IJnuVma0JNm05PklBaUseSVPtpMZ9UHFUXDE0BrwSi5YLQbXFyG/IAIcclm/C37lVfkNdYM+DnIDH4eDQbed54pBZoyDLu5/G3WEBDhOCAyzpGgM/2J5pKSmCfnJoL9DC4QKztHw1sUfwsqZa6h02EBlxlQzsL91L370vOyl3Q3yJWFBTpVSDaKE+I13noo5LhhQqtlsFudOn8b8OfNRbtbLkQhwZaG04aKOxFhuVsHUZKcJFZssh5FRQV8SLDa9kJ4QmA43k4E8B0DGEk0SqMx75zJZ1FTMxPypV2BC2UT09XTQTD7GziMnLVYRoKhky4rxs9jghbgNRSk5VNr4XeE1EpQ6Xjiy0F4BRerRWIUXEuA4YTwJUA3TsSHK0o287KRwddSXTcKv3vaniPB7tcWNas4jOfxi+/14cv/P4Bh9VDM0H11ZHiL2s6iN4Yc5nnkqYYkTc1zeB3a4dPWeQFmsnES1iiQfEX5nOhyax0J4TJbjk9D44j1y+rScYNOb7UVXsgtd6S5+7iE5ajCjhaP9ZeKXvsOiKS2KMcZXc/V01NdMwpn2DnT29TB/SXy2CSeXY1xIojKrLp1LAErJoZAAz8dYhTe43oYEOIYIDLOkaAz/YnkAucvWq8wJqhPbL8PaRTfhptm3kxSEPAwYNInb9bP40gP/hC7nNOwIicGPKlVEzSMRLimfXos8VctaGK6oQEWCdhbdHWksnbEGtYkG0XWMmI+knlaELgdZ+0ijpfUAfr75e/jOM/+EBzd9Bw++8C088uL38NiOe/HiwT04dHY/tLiPqrIqKkibZjZJ0Ugj3ZtFxIiRAKegqX4mzeFO7D+2BxHmnZw8UyAhKkKGGYRScigkwPMxVuENrrchAY4hAsMsKRrDv1gIMJOj6WvbrNkGKswGvOuGD6M5OhUuicCXBcGkgkd334cn9t8Pi6So+xryOZkYIQHqQoDyb/hhvhZ5KsQ3EK4oQD9iINPjoKlyEhZMXsC0CwWasKgGTX4+THP/x5u+jW9u+G9sPPksWnOd6PR6SZAZZCwXGdNFi38Qh85tw5bdz+DQsd3KDG6sr4fplUGzqJwN5p+fRUO8BpHaKPad3ot0pptkLHkmhCwEqKJ0AUrJoZAAz8dYhTe43hrTb64tmQDHsuK/Fo0qCGMWD7HLhjoiOLigi4Nd1knBjlUgSxKsiduYVT4X71z9MdiUKQbJzyDZtWRO4OuP/itakweVylFDajJ73K/+BCNtVMUw0vwcGP8b7I9858kMrcSZFuiUKbNRHW1APmPAiabx9JGH8c8/+1tsOvEUlWIKjpw9qF4kf5KWSitZwPBk9aOu9jifSZ3EpuNP49E9P8HqOdcjHquBn3Nh6lkSYwKTEtMwuaIOWw88i2wkh1TKQZkZUyfZBOH8UnplJykLcsEXy7y4uOCfBzuB8icAQ8NS1wV58lJ45zt1/UgRFF4RjHa7pAIMCTAIYxcP8XeIk3/ycSgGXfJqTuKblwEwKhKbX8xrXIbVc2+iMjRoCeqAlceR9gN4dNtPkEUfr5dZS7mx3w/11v9hDDDS/JT7h/ohf8tErJxNmOzLIJvNIZqIIUOT94VDT+AHj30bbdlTsOM6shmSH/NCJkQGJ7vgY+GT8p//5CCFHMlSjtZqqpmOukQ1DJ1KkCQphFlWFcfB1j0403WKZjhvybMT6Z+YOQ8DAQzTBc8YB7/k3wUJKeIGPg7FoEsGueCX/CuEd74TGhwplNcBLggjrUdDERJgEYxrPBjUSIMzzShyThaWxRaZ1nHD0tuxYNJyNa/huWzUpo8XDj+BZ3Y/Ai0qDbn/xnHCWOWnTHUYloWsm8GxtkPYdWwz0/k01u9+GL3aOeS0JM3VFCwtotYIDveUGDlP8EDrdvgpF7Ma5yJmVRZMRuZbxIqRrTRs2/c8O5YcHC+nlsuMFCXlkFw8zDxVlxY+XjyKhDcaBFgKRrseBXRbIV6PkKOh5Lm6oBkHN4rpTfNpGurI+x7kdJWcn8Ghs9uQyfeRAmQ88I0BOeJQSNCK0+y1kziR2o9dbRvRhbNwrQxcP4fyeJna45xKp/vvKg4xqwvmdh5pswdP7v4Jntv/mDqRRuaXdPYoTgqY17QKU6tmQ3fy8Mdyq0yIMUVIgG8Q5HJ5tdTF87KImuWY1DCdppmaE6VC0tDrdePomT0wIvxCrX97YyBhx6F5OnLpHPIkQ8OwEI+X02SNwctoiJsVcJk36WwaVmR4RKVI0NeQQA268q14aP/9ONB1qECMfpp9jI/6eCPWLroWEYaj6/H+O0O83hAS4BsErisEKPt3Hdg00RJGpTLXNF92POhIUbac62qBYcsJL28cxeLkHPhUYXJKtU0yMmQtYIbmqGND94UEmQ3yEHeZCS8yUREI5p0pzycuN7Dl5AvY1bKH+SYdiq/OSNQcE4vnLkPMLmMmS68S4vWIiyLAATNhuK4UBN1fqhsNBPlbzI0YeU0pjuE4Wa/sUdaZeVnqYcL2bLWOT05WlvPuorkyrJ63Cr6MS8n1akFvDifOHkUPySFiReGnOgP9LuZGA0H5Jm6kkE0YTLg6F9Dhy9NdeIbDDCIxGhnkbXYAsl5PJkDUDo7gOMjY0mAnk0lZvZP5WYlExMKLB++Hk+8miUbV9TZFdEN8BiZUzmEc2tRzUuB4JN0so+PCkvMFGQ1N3oc4Bqr8GArJ6uG6Qud2od9BTnatyCESQ19B/hbrIpgdRfxmHRnifHGyqPwCFxAeXSkIKr9Xcq+GUAG+7iDr92TdWR6u7iCtpZDV0tDLfDh6Wj2uMhpNqLV9yv5lxZP3XC7JP+R0F6niYbEPB9KA5Hgsycb27g70OT38kn+pfCWvGhFMqG6GmSpTZwzqdhSkPqRcDRkSrh8Z+cRIiLFF2BJeZxAjzGDjylHh+QbJjApIPeO3LwWf5l5jZTPdFF7Xvy9YFA3lQirdx56Z/b5XOOU5xDBAAaGOBKP53EkCbO1qZX9S0EiiLURxz2iYj0n2XGR7emF6QMQk6UnnpGWpRrPq2hCXLi5qGUypUCbFOOKNHR7pTNqg4cEwNDhptrq0gcbIZCyfvgo3L3sbrpr7ZpRbZSQ82atKhqRJ9uLh9dh2YiMbs0vTRb4bfpzHMnnjXVbFMDQe8pesn6QhxTyjCUkuu2reDWiqmiK/qDKQZ4vUVU/AzOZ5WDhnBsrNSqS7aYhnafvKoQmeHEoRMOEkno8w3cqLwsfhIeDiwmlFF2JkMetHYPqCTdJRCa8IXq1+hQQ4Chjf8GSMijpQzvXLurCdGFbMWIP3Xvdx3Lb8Hbhi0hqU6RWFc+tkDCwfYQPOYsvBZ7Hr1Bb1zF9Rh6XUurFM3niXVTEMjYc0VVHaApedjYyzXrPgJkyqniYlQGLj9XRRM6FU9+yaRVg563qsXHgtassbkUtmke5N814S4VBIUCNMt/Ki8HF4CLg4JECW8fSbaxQBvrFJY/zDK4ZS4iFPK5Nnc6ij6vNyAoqm1rXJcz7ctI+JsWm4beUdeOe178fC5tWoMGuhuzIpImHI4U9ZmmwRdDnn8Ozex3GkbR8sWxQk5cso5IcQgfx/npO3ccZYla0hA/fsaGRg3/biWNS8FNPqZrMsTOarrp4ZIlkpiTYcQ+00KbPLMG3iLMyduhjT6ucgnepAG03nVD4JKxahGLd4NeMrRaAGNFhSlJPyrBLZ0RKE0UifhDn0VQxK9V7wElx4z8hjJhBfhrpgFP/l4vDSXuDimTw4UgNu5BhvQhrv8IqhlHgIhZm6NBh5NkdGNRJZzpFOO2gum4n3XP9BvH3l3WiIT6GmY2/OhuTnWFVljM9mG9MNdDht+Pnmn+CRLQ8g6XYjYhu8jBVaVvVKVIbjZCtdwA+FtAxxMl04zhiLspUJEFk1k4PDVBkwSFymZmH2lHmoiFSpa9S2Osl3wjAL463yXBE5h7Eu0YTpDXMwc/I82NE4znadRieJMBopzEQ7rhzOSp9lEbWM1RaKLxCB6RuU5a/mBgjvwtcFlxKsG4FlyF8lHoMv7v9zKIZcMsgFvwp1cagL9EC9jSaGSYCjj7GotK+E8Q6vGEqJR14OLCbpyTYvI2Kogw4sLY4rJlyJj97+KVw581rEtUro8oBzShEtT/M2kkcfurHrzA48tv0R/OS5r+HpHQ8jpXUiWmbTT6ncMotcCGN4CL44uGG+MQhQGqYckKDUD8lNeO5s5xn09nWhs7cV7akzyHp9LCAXuil5L+xFkjQs2KatTGTXyaIyMRkLJi9DY6KBarAH7enTyGm8hx2RWozCMrNMS51bWKypjTR9cndJPgRezBwJiMfIYtaPEtI3KuENgrbu/85WNbZ4Jgd9P/JKPhaV9pUw3uEVQynx0FwTrpZhu/KoBKPIsb0tn7UGH7nuU5gzYb5ae2ZostSi4KfPxniwbSee2HE/Nh18Bq19LUj7aTY2tl4KDTcnT0YzYLGRykPDhw2lAC9EYFpKWWw8ShiTsmUVNzVTrSuUU2LktOhc2lXrL+NWHOXRSlRGa+iqkYiU49blb0dT/SzURpvUyTu6bEuRyRNfV3nusBz3tm/FN5/4Knac3AAt4qq1i9ITyfNY8ll+tILzbqTpkz5puD4owg/sxGh9BMRD9pqPFEoBXgDx+ELPRyO8wQgV4DijlHjoPgnOlqPufeRTOq6YshbvW/cRLJmwkg0xxippKmLzDB+t2dN4cvfD+PYjX8Ez+x5El3eaDSpNUiThWRacnKsG9Q3DRM6TBl1KfgRfG5iWN4gClMbni6qT5Hg0UWUMlmrcNTLI6EkkvR6cS5/Fmd4WtPQew6btG3HozC54ZhKVZQlYdlTtwZZHE8jx+rYZR23FJMxoWoT2jpPo6GxVz2axY+zA6L/wZbEt2iNNn9xdkg+BF78xFWBIgOOMUuIhB3vmqep8z8G0mlkkv49i2aSrSH5sNGyYcpKfT5VxsvMkvvzQX+HJvT9CS/oQ3IgPw0xA88pVI9SoQmiY0UddKT/dKAy+Dx/BVwem5Y1CgPRT8lblnahs2WooY4F5diiaHLZqMqkFVSSTVb16J84lD2P3/mdx+PgBxKO1aKiZXnj8pi2HqhbKsdauQPPkBnT2tePUuRZ+LyoQsEWVF9mHMdL0yd0l+RB48RvWBJ7D7C+t0hYvkKDvx65BjEnF78dY+h2EoPDK+2z0VqWQS0bwN+/+Aq6cdT3VR0aZAWYqRjPKw/au5/F/f/KHaO1oYcMc/iEHwekrPg41bJRiLhcJTx5gDjNHvs5RPZE4siYiehQ1ZRWYNmkBJtVPR0W8CulUL1q6W3DyzEG0dh0rmJDMg760g1iEBCUTGPkIv4uRcM4gUW6zCxibfbtSJnJEv0xwyEnVsVgMUxpm47O3/H9oTkyCJidyM2tyVOsi9M70teELP/hLbGv7IVU+yS81EXq8r+DZYNDfoBxVVBmQdyOut0XCKwZZJB6MC30pxRQvhuCtczIB1f9xEIYT3ksKsBQUz+SRJq80jLiwXwFj6XcQgsIzqOSyOR/vWPNe3LzgrVRxUdXSDM8C+Nuu09to8n4Jp7uO0FxzmfvDj3Nw+kahhhbxoJTwcsjCNA1ku33U2c1Yt+JtePeNH8b7r/913LjoDixvvgELJq7G4uYrceXsa7F27jrMmbyS5BNHZ6oHWTmxhe3Py2fheiQcXZ4lLApYaKOU5j18yNIiSaOQn+wekfd0Oome7i5MapyMsmgVQ6ZiJEHqjIemG4iURXHg+G5kZJyWRapabACK5FzgD6NRb0vyoejFF/4g34w0dsUm74KSPZzwQgIsgrH0OwhB4WWjaUxLzMOv3Pw7aIw0w5NGRvlg5i2cdI/gSw//Ezbsf0wtrRBTN7AWFEFw+i4NAjQSTHuXjxlVi3D3uo/j9uXvxcyquSinerOppEyXpEYpIEt/bCeKhF+NKfUzsXTW1ZhYU4/u06dwOnkOearIaCKCbEbWUtrMI5qbY1SuMus7+HklogRzXgpH2rairb0L05vmoSpaLZty+KNDgrfRWNOMZC6HY2f2I2d10NwWkr4QRXIu8IfRqLcl+VD04gt/kG9GGruQAAdhNAq7GMbS7yAEhSdn/L3/6o/jyuZ1FH6GeoC3LJrtcc7hW0/8N54+8AsYZR50RxpeaUtbgtN3aRCgk8qrCZ8P3PQJXDV7HeKkPkl/3mAaxX60eZOpqc+elYRv5pH3TMRp/k6paMZ1C67FkZ5TOHX6CK8R0pML84UOpKTJn+FjQAEOOCFDWeLnmH04dqpFKdGpE6er2WMRoVJepHJMmjgL+0/swtneg8yKkABfDSEBDsJoFHYxjKXfQQgKb37tcrxv7UdRadWqmV4YGnLpNB499GP86Klvw2XjlyeYeRk2NpqMsoRhuAhO36VBgFMic3HPzR/BqqnXwZBjpkTdmkIyJu8w1QLvHAnF0+RZvpRU4ocmpq5B4rGZJ+Wora1Dy9mDOHXuGCJReXg5CZOdx1gRoPgqZq8oP/U30ytHiVmIqWVMZ9pP8HdgasMs2HYFrV0XGtOQsMpp8DvYdWgT3BKeLaxCCfhhNOptST4UvfjCH+SbkcbukiDAYBQPahTKpCSMRiUoBSMPr7CLQGq1emYFPxp83X3lL1MJrVaKyI3JsUw62vvO4mvr/wWnO46ysctT0TRE7DK4vuws6PfuYlHk/qLelhJe0LUy5sV/ooZkdE4ukfnpu6/8OFbRnI37FeqwUz3qkezSakyvK30cx85ux4HjL6K95wTsfByWFoMlj68kCWboR4adQn1ZNcyogz1HtiHpZGCYpjq8QC1tGSZKKVfL6J+A4j0Dt8mWuXwmBs1O8QIHJ4+fptk7GxMbZjDOefZnLHfXRKwijs27NqDba2cD7ydQ1dILnws5E4CAr4vGeMSV4xX8HiaK3x/8S9C3AzkyFEHXDie+/QQolwa50UFwRRoaVtA1F4fXGwF6VDEygyt7eFP5FGyqmOllM/Hx638f0ViE5l0eUS2KJHpx/+4f4cmd91Px8XreI/tPZQJEyGTk6R4oh/NdYdP80O9ffjsPQy8bcKrqnu9ckNQcfvKjQFwWdRuYWT4dn7nlT2HZEZIWzX6PpEXle7T7GH6y5bv47wf/CT/bfS/Wn3gUT+x9EI/suQ/d+TZUltWiNjYBBjuEqChlN4NJVVNw8tQJHOs4iHh5FNlUltawisywUEp++lR+irPoXk6hD53qz3MclinLL5NBt9+J5dOWUdWX8ybayL6ORDyOhJbApmOPI2ulVBxN11Z7vzMkfUNm9/v9Ps8FQCZlL7hMfVCfXh2DbxzkBj4OhUy8Bb9evmfAKXIP+kHiNvS7l9/Ow9DLCi74lVf+qvGGIe7leIzNlFiIkiDPqM3lZNmHfKbZpNlYNncVysoq1EN/rKjNwqQZ1XUUTz3/YP9dr3+YeiXK4vWshx6ipg63V8Nt1/wSlW2U+WCzxVAP8q2l6zB+sv67+MGT38WpnhZ229TJSshp6HY6cf+zP8H/PvpNHOs8VJhNdUiCWjkq7UZcu/JNqK2chM6eJDsN+XH8ICQopyMzMSQ1/mVksfvAJmzdt0Ftg5P5YPmneQZWX3EdJlbKnu6oMtNzbo7Knqa7mP8hxgwhAV4CkB5elk6IAcwaj7hRieUzriq0IJKjLK2TY9437noSJ7v2q3veECA3JJNdsMwMvGwHGsqrMbN6gUgFOgNOzkcun8amg0/g2QMPwi/PwC5jz8588t3CkICVsNCDDjx34HE8uPk+9Lpd9JjmpZi6VIPT6qejMlqJXCapTsIZd6gxRx2ZXAbqrFQrjce33o/TmdP8g8QoSfU9KsQKLJ95FfIpQz3MXg5elTFFmSoJMXYICfBSABu8PHhbVJ60iLp4IyaVzYabdVQDka1rXekOvEDloJXLOoo3BnTDZZozsEgSXa3daK5rVg8h19n4ZeJDHvLUmezE5iMbcSZ7nB1BTi1lyTu+euB7XvPhZFyUVybgxlJ44cAzON11AjIPkafaEiKsjlRjWt1UxCklndSrPxZzdCEzzw5VqczuygQO1b1t4lDHdhxs3QtPTDGXv9NuFaJbPuNqRPyE6hhMm6SZJWkawTPDIUYHIQFeApBj6uWRlj7NIlPXMaF2EqrjtTAs2RyVg2HoOH72BM71tSOdT/Xf9fpHNptFzCqH7tVhXvM1mDNxpTrdRpOHGqFwXFRHdwcOnz0MI6HD9A1E8pbaCihjn27ehZm14cmp2KaHc6lTaO0+BVh5ZHwdPk1hK1+DxVOvwdJp11JZ1xQCHi+QyJSpK0pej7CcWcZUtmm9A1v2PYe0m0LeS7N8XdUQJyamorF6IjLq+cW+Mn8L468hxgq6TNsPTN2PFQbCON/JkoGhbnTicWFYxd1oIMjfYi4IskYsT7Uj69XMbBRzJy6EbUTgmzR/3MKhTHtPb0eP2w6NjboYgsIr5kpB0P38J9b6Ba5gvhacmKhCVIw+TVLZHcHPepzEpSGb64PBtCxoXoGP3Ppb+LMPfAF3XfURxIw4r5clPQVvUrkk0tk+mJYG3yOd0CxUC5p5hSFLXxClOUx/SZZZJ4MMTV2BnLCiM08jJJ4bF74Fn337n+Gzt/8Jbpr5ZlSiGimSr1p2Ysm9zGF+VEfgu+yGRJVJtC9Ic8ENF5IDMrEjpqxSripbdKY/jgMtW3G6+yjyVpTh+ZAnrFVEq9BUMwleVjK3MGMt5nEpkCIY6lReBqVDxheDXADk2yC/g1ywD0RRT/rDPS8OaqAj4MWfA1wgxJsgvwfd+CrdizS24boQFwtpKD7NIVmrJvtgRQWI+imMANkqd9v6TiPjJdmgLyWTaGgdKDg5Okral+t6ysmERdbTEC3XkE63IteZxurpb8Ln7vp7/Obb/wS3LrwdkyJTqAbj8EzZv6uTk4SYgIqyctSU1yKXpD8yU05z0hMScfJqjZ1vUgXGpRpr6hm9VeU1hUk+3SUL8oNVIMPGsslYM+smfOzNv49ffefnsGLKWrg9DgkvjZzTRz/VMywRiViI2jZJdXSGGmRZj0xsaYyUHGYrzRqII+X0oCfVwb9YnowmlYjq9BJMg5R5YexvoKWWgAuLoyhKuDT44iKOyQmE1PPg1wVe0BMpxCFfFnNFEHRpwb38CvX1JQBZ7jGwiFZM4USiTK0Dk5f8k+fddvZ2sAFJ8V36UIP3NOXlcAAhclmDJ4cAdHecw6y6KfjYrZ/EJ9f9Ia5uehsmajMQ8aNMpkNj0UWSzUeW/UjDdz0HdZUNWNR8BaxsQm2Ez7gZdUCpRr/dLFVVJIW00w035WL2hHmYVD2Ft2oUUGn6J4MKUslJKfTS1E1STz1WT7gFv/Xm/4Nfu/13MTk+DTbJVoSgTxIU/x0qcl2IaYzAaCBDZdub7lVkIcfri4KVjiMeL2e+FdYUDuRfiLFDSICXAIQsCrPAefU5HqcZSAwQYNpPoqOvo3CMlbDAJQxpsG7/ce9yDqHAdXMwvAxm16zCnWt/F+9e+2lMq5hK8xBUfKQAOXaK15m+iXI5vYXkL0opm80os3DNnOswvXIu9JyDeMyAEXHh+L2IRJlfVFZ+Ko+pFbNww5LbUFM2QZ2tZ3hx6DJ8IN6LopQDJLI5pfhsxyTxzcZbln4Yv/6uv8Ps+sXQUjaJ10AsliiEr0h4bCBLYjK5FLqTXap8Re2KZSbDBfFYBYnPUgJI6kJxPRViNBAS4KUA1nFFGqrCazTDSAIiCuQv/ienhfSkuhQBlmoRjTek0YqSFRUoaxvlPREpw22z78Af3PU3uHXBOxDLk+AND57tIAcqLio/h+ZnR7YVRzv3qUQXCFTO3zOxZOoqvOPK92Bu1UJkWnlPn8PfIvTfRa5Nw8yyxbh54Ttx1dxbENVIfHLiVY6kYmRxomcfTiYPI2VSW9om85ZmdFyGF6i23SgWVS2nGf5nuO2K9yLmViPZS4UpNrRYoGMEWbie89Lk45Sc3qXSK+sFhaijdpzlbqiJMTGbQwIcW7y0Fe5SkdrjHY9LIzwNWTfLym+xUVp4y9p3ocqoV6pAVGB3vgM/f/7HcPQkPIfyRhHlyDBW6R4w5cV8kyfaiZpdOGspPnXVX2NiWR3FXkqRi6fZVGWy/d+iGnKxYe9z+M7TX8EDu7+Ft8y7m2auPCvDQD7LDsGKo6l+CuZOXwSbJmJXiuqpN4WaqolYM/d6vHvdh3DVrJtQadVQ4Ql50fRlGKedQ/jiA/+ABzb+GDlLQ0W8HtW8JoMsPCtL05cK0tNRkW/EzBlzeE0OR84cpNmcJe2Iig1mwZHmnaPRMHdyWNx8NRZNWcW+jp1B3uB7HvvO7cL24y+wQ5QjwWSLoPR4Y6NTiqZiFOrGqNSuQE+Cfb7Y8EbxMAT5rhQ3clwa5DVyyPH06XQPG7qNqJfA29a+GxVarWrIogay+Qye2/MMWrtbqAJHL/+CMNI0xqwGpL0e6NEMYtkE3rv8E/jVdX+C8kQFSUmHS3MvR5KK6CQ+qqCdHdvwbw/9HX744teo1g4hSXJLu+cwvWk6EmatGgulLasItS4+BSunX4s7lt+DD1z1Kbx72Qdx7cxb0VQ+nfliMh9l9pbkQv+T7Cye2PkAHt52H9q8E9h25DlsO7kF2YiGqVX0W9bbOTpJL6tOlzEYn8VTl6mzFvcd3Q2tXPxh9+PnYGpRKtEYUtluNRutVqYPE0H5qdk0yRns6mlrMG/iaqVyDaMXed/CjpPPY8eJ55kOUjBJ0leWwMjCKwbJ2qGuWNVSE0sBjgEWLhiMQf4Nx/HfBZCOX42DX+AK4Z4XB3YccjCrKPfznfgvW+KKhzc2XUuIkjEw8C1mbjqbUmNA/WVLpWKRWKLqs8woXsroc04gQiXrdiZw+zXvx3UrboIlSopy1vJM2GzkNgngWO9B/O/6/8L/3P932HX8GZJmKwksSSLK4JFtv8DT+x5Dn9euaqiTljNgbBhUTkbeYZcgi4cdwHTg6Sl+dhGVtYG5CEkkAteMYNORZ/DQcw8wPn00e+WEGAMtp/fhh4/8M7788N9i57ktcKL0l+a4HEslpnMsX4Gbl79FPWfZ6CqHm/epA11k3JSaUEnEZP9uf0JHAo/qVo8iFqno/0IgC7vzDIvqVBnohTWAbPL9v4cYC4QEeAlAqrhtycAVGY5c0dHTwU8Dq56AqB5DVaKm0BiCrbJLBmakV6mbaxe8Dbev/AAmlc9QvbSs85R3Sevp1HF8d8OX8aMt38DuzheQtal+Y1ZhN4yvocM8i+89+XX87IUfIW32wopbskKFTEizVFarkEhlqYzM8eZFEcvEkHxPJd1L9bnl9HP41pNfwsGOfYhXxpGliS3XWHYe5zLH8JNt38J/P/4P2HDkcbgaVZZHU5i/y8PNJ0Sm4C3L7sI9138CHv/OWzrsMjHTkwXyEwkxUrAziFtVqC5vLAgoujwJXhZ2d6e6CmUv+aUIMGyiY4lRPg9wfDHe8Rir8ETam2xoMjguT4KbO2EJZk1cyB986GzsJs3G/W07sP/0TppEbOklmGClYqRp9DM5LJi4Bh+86dPq4e1m3oDvyHYweTBQDrtObcG3HvkSnt3/KJJaEpopJ9pYoGxD3pETcWwqswySfX04ceoYXD+LSDyKSDQCy4oxr+z+mXCd2WDBZ355JKZ0vhdnM4fwi+3fwXce/lec7D0OM0r6kDWDJMCoLZMmPgk6DjNh4UznSbS1HaW/DibXz1AmcD6nKyKMR8rQPGEqjrYfwekzR9SsrSZrV9xCl1TKcqSg/JTDH+qjU3DTFe9AQ6KRX7BnYHrSbhKP7ngALX0MkwRYGBWUXmNk4Y0GxNdAn0chvFGJcXDk+t35GPxNSIAlYKzCk10IdiQCx8uqRthcPQdLZq7kL2wEjmyM19VM5tajm5DxafLJ6aBjhJGmcYI1C3ff9FFcMXkNTJIa+UcpGw85bD65Ht9/7muK/PKmDPJH1HmGMhkiM6CGSRVGleZkaW6WRdHVdwZ7jm3DgZad6HLaRRchHoupBdNSjeX8P9kNcrR9H3627bv44ZavYdOhJ9Ha1YIoSVNUo+wVjlhRxkE2pclYoknTM0ZS9tDacQq7TmxDbflEVFVWqef7qnEm5oGp2aitrkXLmYMky5b+Q1UlWDFNh59HQdeyr0NT+WzctPxdKJfz/1XKNHSnO/Dgiz9Fh3NKqUSTHYM6v3CE4Y0GxNdAn0chvFGJcXDk+t35GPzNRRFgqRirQikFr0Uchhumzzou41SOm4HLhtlUORUr5lytxqbkFCVpIN1uF7YcfA49TpsalPdkilgVpbyX1ihHA7JST+IgykhMNmFxS7fx1iUfxHVL1yGmJQrqy/fUoP+Bs7uV8tt0/GnY1RqiJtMgiozkLnpW12TPbJZElUJEq4DnyfM8qH7Jdac7T2D34R3Yu28Haspr0Fw/RaliOTxCQxYbDz6Cbz39Rezp2KGOvIpalTRr5Rw95qDsnCFpJTN9iJdJHmfR29EDW48hXlGBpJ/Dof370FDXgOa6qSRN6XAYH6q8ykQNyyWPfcd3oMfto0q0WSYSrujA4YD6TbGmoYqqsPhGxh3zWDLlGqydvY55ZsBj3omqPZNswSPbfoYkaAYzbw1VvkKAY6P4S6kzxa5U1TMARX0eYT0t5W7Wzv5P52Pwt2OTs8OCRGO47g0Oto9chmYiK7pPk+xox0F09bbT/GXjjaRJNCnMq16OxRNXw/H5NyuRy0akKh8bqicqoWhVHCu4ShG5JAxaj1RxOcxpWID3XHUPKo26QrHJMf5Udd3pTnz/xa9j66H1KJMtFymfBMeqp6blCvGW5s7EUgmWMT05fkHyzBrIpXWavgnkY3m0aqfR7fVSxUVkBTXD4D1+HNGyKqo7DzWRCkQ8UU0uf5Kj80nShsP8ctVjKt1snv7biJWVUYH6yGSTzGMPZ7WjeHD7fdh1ejt8yyHlCBl7sP0yXDv1rVg59Wqa6nJyDYOU/czDBstI7eWNknh9uDI4St/jqMW7rnoXEh47ATbBHIlcd/PY074NvelWhkFFyLBcX06DGe9yDYYqqgAXCEZZjfcOccUQ5G8xFwQZGz9/prjgijWJwTPFryEBhhiAzPzmchlyGRWPZaK9txXtydOqs/TY4AyqFdkjunz+GhhpeUCQrBlk4ckOCl40sPd2PCE7ceNlcRJyJyLkojK9AbeseR9iVGy5nOznlQd9a+j1z+HhzT/AC9ueUDs4dEu0oxBDv0eXAHyS4aFT+/D9h7+Fc+kzKt81n2VB8onFanHNFW9HU3QmybiLapbkPGxozJsIHIfKXiexSqPzdaye/SZMpAkshSZqUB62nmfHsGn343DyPewcsupMQDkPUQn9EGOGkAAvAXg+iUEWN6vBfY1mWY963KVO1eHKhAfVjJheCyYvwaKJa0HWKRRc3mHjkrE0MfPGtyhFsckhn5aVQ7Ynh3kTV+GKyVcj66YQjcqEgxznnsOWo+vxo2f/B47eC5smrePK7hARrkLcRbr0cYac1NLHPN9x8gU8uuV+pNxuSaDajSFkPbdxBa5ouoZEpakdHMMFdQj9pgqlWpbnEnuZPBrjU3Dz0juomCNUlfxdJoh43f7Wo9h74kUq0ww85pGmTsSh2iyyGDvE6CAkwEsAYrLZtuxFpTlLdnCNDDbue5LGkjzgWyY8RNLLeXGT8JYr3w3NpTmXpolm2SSRfOE4rXGWgDK+ksokqVQiiGkNWLvwFtTa1STrGH+l2Uor9VzvSbWD5ZRzQi0nEdNdZm4t3iP7g2XXyKUA3TFgRww48V48suVnONC2l+QkZrCPrOeiyq7E2lnrMKl2ljooYbhQWwL5nihPwMu6MPsiWLfwrZhZP4v5x/yggk8lUzSBk7jvua+h1+0jAcoRYjTfXdAasJSZFmLsEBLgJYCBwWhZ8yXmbMpL4mzvCax/4RE2IFeWv/FHDxZVwao5V2PZ/KvhZKgQ+L26l/9EqYwnZCLAihrwPRsLpl+JNQuuh+nlYKkJDCG6FDbseAj7T+6EWR1l7GzkHFFEBUL3SSxykMGlgGg+ro7Yd80UTieP4tHnfwHZpWzK7hKqcFn+smTaFZg380q2GCH44UFS57GQclTpGhXx9UtuxK0kQDVBZDiyIQ/x8iocOLELm07cj7xhs2PQ2KkkaILr7BTZUTCfQowdXjoQtZgbDQT5W8yNFYLCeiU3GgjyN8jJcU0yW+pTEegu1QjNI5fU941nv4wzfQf6B8Jl4a+OqkgF3rrwvWiobELGysC3czAyJEdQNcjgeb9zXSoO0wwMT1wp0HIyHkXFZubgmVmasw7jmmFcfZgpG8tnL0a5LZMPZOI+IUfgUG8Lnj/2NDJIwsiWMU4Z/sD7Pd7vOlQ3pZvtwpdyuosC3+VvxaHsHNQK6TzJlZ2E+lsNgg9x0lMoTXa+8xlpOXsWfkQ9VnPrqRexqfMppVKtvAWXgRq2idWTVqEqX6a2+mX9bGF8ToYoGJzPNBm8Vg5hkIkS0+x/6p10a6kuLG1Ygrtu+DQaK5qRY95Jedoey8fI4vFdv0Cn28G0uHRSZvRPY175kiYZ3x15GQYhyM9XcqXgwlwmxAvJtGG6oDgE+VvMqRKnV0Pd4IteJwpwoPIOx73+IDNWLF75oD7L+i8ZiT+ZOYlNhzawMZDoWPiyL5gGJBZPWYY3r7kDZX4t8jTftBgJz3/ZpJR9s+LkyPnRgB5zEYmxYWZIwSkT8VwVGvXpWDHpJty05E4sbF4lm8kYZozk1suGn8OWXetx9Mxe2HGakr48wF1OuTHVCS82TTvZ5TC6JrD4NVAHpJYPrhMDbtDHQc6nas2S5GUpSkWZhc6+E/jxw9+iSpOf5T/pfAzm+3LcufyXcNPUOzAnsQzxfBW/z6tHWZoRXkMSNsTU9zxkMw5idpSKPoUZkxbjzpt+DdOqF9A/H7aYuIrbcnh05wN4Yd+ziEZj/I1lzLAKdUGGNQq7QV53CMhj5QZ9fDVXFEEXF3ODPp7vXn4Z026qecV1gOO+vmycwyuGSyHdDs2kzvZuzJ+xEFXxGqUUZXBcFvZOaZiCbG8WB48eQJ/Vo8YDLbUzoqAAhQDlvVg6SklfxuhSR/FXoR5LmlbjrWvfg3dd9SHcuuJOmuTXoDHeBN2jUiEH2TGqRT+FI2f3YveRLUg5fdDkaWyyq58pyKkHPelUSHLkE/XRMOMhY2GyLvKKqVdiXtMS6DSl87JDgx3Gke692LD3UUWBck1eE7OxCHEEBCcLU9RQq0O16vhoLGvCLJLWlTOvp5kukxFsKnyPWAnMm7wEq2ZciyUzV2FS01RFUl3dnWp5kpChPOgoGmVnoNnIpnPkTh819jRcv/RtqI/WQUtT5cnzShje3p4X8dWH/gWnug8VhgNKJLtLoY6WArm7JB8CLi4lDsMJLyTAIrgU0p2jydnW1gY5V2/xvKWIaWUiDJRCKDMqMG3iLHT1deNQ64GCWamWw7ARqsNVC0qwGEpJn5zTEEmX462r34cP3PpJrJq6FnXRCUjk4zBpshsM0xDzXQ43lb9pes+YPBMNjVORTgKnTp2BGSU1GVS2rJID8ZO4DjceY0mAWiwNN9Or0jO/fjnecd3H8PY1H4E6q5V5KnGUcByXOc+o22YcNRWNmFU/F4ubl2Jh7RJsOrCR1+nqFJdMjsrb0xCLVPH6BHp72tHZfRjTJ09BdayZkdRxNncSX3vkC9jZ+hysOPMky85AMroEXAp1tBTI3SX5EFRWJcRhOOGFBFgEl0K6pRnL9rCzrS2oraxHQ1UTYmaCDZ1N3dURj5VhxtRZ6iTls90n1W4HWU4jJzG7bv/SmiIoJX31+jR84E2/ireueC/VzARKJpKCTmOObCAmn844ypYVGbD3aaKL6tE8Hc018zB3ylJYJIa9rTvR09OtFiSr5S/C5PL2qlW0gLEkQN3O0LSP4pYl78X7b/w0lkxeg4g6okpULVmQRC3LdkxRrhZjLEONEoSrocysxJT6GZjQOBEnjp/Eud6zsKMy2SMDg4wfCVQWVx89u51quAMTG+eg0z+Hn278Lp5+8eeIVehwHI+KOKY6tlLwemubcndJPgRcXEochhNeSIBFcCmk2/PySJTH0JfswbnTHVgwYynqK5p4MZu6qD02yIQVx8LJC9FlnMGZrlPIZGRtXoEAZWlNsXG2UtJ39/WfwrpFb0OlVqOIVwjA1wqHNskyHdnlII97VEe5G2IupkhMNNhzNipjFZg6uQEn/KM4eeLkS6avkKfMeg83HmNJgJ48nW7S1fjgTb+JGdWzYJG7NC9J/2OMn+SV+Cy7dflDjmHIaTQkcdUJ6J5a5Dy5egaqastx4OROtPeeQVlFHK6Tgmf0IOcnYJeV4fDxPehNdWJ7y2aS38OwTE9N6hh2FL3ZLKxX6LCCcCnU0VIgd5fkQ8DFpcRhOOG9KgGWgkujQAaSPRw3OigMVI++30ImeceFZVtIukk8f2gTamfUYIY+h7/KUpPCg9Mt08bKSbdgQf0qZLp60dpxQpnPaTlINC/nRLGgyVq6ZrO1W/BlGxrjLGQhi3Blp4IcOpphI7d5jZNLQ4+TXDImrp99Gz563WeodMqFhRTJyOSALBJO55I43nmY7iA6kq3okf22foSqkH7IlaYlywxI0uWYGJuEfUd2ozV9HHqZDi/D0GXMki/RPYOdqCa1JEhmdAlZSCzXmVRlV0wbTIC81tdwuGsP1u99ROhJpUmWDqkjpfiSSVoxY2ULnEeFasaYb1RnruPAJmELgca0GH7vbX+OORWL1DNKfD0HPUf/fZ353oUTnYdwuPMITvd2ocNpVUftR4yomqxSceS7nC49sXIuyu0a7Dv0AtyIh6RnwJL8kJi5YuJaON5xFCfOHYZvOnBJ4CwdlZelkl+puCTaJr9idg/LCYJalRoqHeIKlab/psHgV0F+D3ZvQAIcf4xVPOSwATkWPZ1KqsMSens7cfz4ETTWTkBT/QQ18WC4bIRiZtEmk9NLFs1ZjlkzFlJ9mch2pJClGhJ/HBKhZ+TgWlm1r1VtwpCZRiEX/m6xccrsbUTGoVirMlkH0+vm4651H0Jz1QxWRjni3qe5yN/ySTy59378YOOXcd/z38D9m76DJ3f/HBsOPIrWrnNk5CwmVjfBRhQ5Eo1h5VFtN6iwDp88oN5thuN7sq1MlKCoq5dd3uL3JGQ57UWITCYiCiSmDyFAkjQJ8Ej3ngsVYFY+2UyKEB79oFkuaxdl/aHPdERMOS1GaNbAm1fejevm3wY9G1Fb9dRzTRjei50v4r7nvof/feYreGjb9/HY9nvx3O4nse/YXqYJmFA/kcRnM6rMTFGE7GTiVTEcObMPJ9tP0i/GWUzooeDl4111X49tsyQfLjK8kABHAWMVDzFnEzGaUrJomI1dJ5Gkcp3YfWI7CXAiJlVNYQOj2elpbJBs/r6BqFGJKVVzccWMKzC3aTZJ00E0n1BPTpPniegyVSsb8zNUQ5HC+kNqLXguyYSqRLZ7CQG4jo61c2/GHVe8v58ohBgBR0/h6b0P43+f/DK2tjyDrnwb/EQOfiSHlN+DjQefRXvXGUyomIxJNdNJOqQ0WcTtxVA7oRpbD2zGibZDareLT6LS5EBTsQMHuTzJXIk/+ZtKVR1AID/xNWwClAcq0W9Ji08yzebT0Eje0UhUxUmOGMvQ7CyrKMev3fY3qNSr1fVSlKIkT3W14j8f+wus3/MwWp0TQDwDLeag1+vG4Zb9ON1xHGVlcUyrn6WOLKPEJrnmEbfj6Mp04sW9W6BRBSqFMhQMY7yrbkiAwQgJcBQwVvGIydHyNJ3UKTFUMbLWzzNc9GQ7sP+QKCkPjRMmqLME5SRlOfpJCMxgC47oMUyunYK1C27C6nnXYPnMVVhI4phVOxfTa+ZiysTZqKyswem20yRPkgXTIBMuHtWRjOVFjARuX/VuLKhZpsxIeT6GTIse6tiFbz3y3zh4dh/DlXP5ImzkUSBnqwcY6VUOujrb4aRczJyyGFWJShI0TXXdhBExcbKzBcdbTlABClXFoHlUUP75rkqrg5uTbWhivsvkQ2F2tBQCzJokZfKg6UUQoYmrzH9Z65eLwMrHEDMqUBGpwYJZS3HrzDsYjOz6YEeQc5HUuvFv930eu1seZA5nSJpx5OVcxkwMETvCgnHRlWzD2bNnmI+z0Fg5mekTAvRgGqIedWw7uBEpr03F6AIwK8e76oYEGAzthr+ZFdRHXRRef5k8OkkPXqw6cr9NachyhJMZIzkxDDnCKd1H8rBpRHokuXJcO2cd3rH2LsypuQKWRjKi2pJcyZO1HN5rRgfiJnOMMnHhkFRpCtIk3Ny6Af/wzT8nWfTwOxnXspFNOSQ2C/FoNf7srs9jcWwN8uW8nQrR0bP40fNfx3889H9hVxjqBOcMVaWMpcQsm/fLGsAM49xL1VmNT93xJ7ht4Vthk+TEpPSo6HqzPejOtqKM5C45pBYaD8GmfRtJaE9jy/H1SKKH5ipJjd+bnomPXv8buGPFL8F0I/CpeoWYHz32Q3z+x59T42lidntahurZxVVzb8ANC9+EWZMWIGFXMu0kKJKoGh3M0xAn2ZVFy1GtNyJbGAGF4evYdPIR/J/vfJr5IIEyrweOzCfDSm7KEVt6WR59rVncdeWn8cEbPk1CjbEDIuNSjZ9Ot+PzP/o97Gh9lMq9mncMAWXhODeV11/bZIEHtaogqJamxnRKx0tb4UYDA34Nx40Ggvwt5sYSQeHx34ghg+PRmCgsmr6pLBUN1ZAhTygzac4BKaMbD297AF+67wvYuO8JnOo5qszQXD7FSLE5y2Jovst5gRIdGUuTw1SjWgIxrRwVWjUVn4wzyqQDSYGmps7PDk1uadByBBdFJ+8V4qT562VxrGUfcm4KeZKPmLF2QkOsTNSYgyTNczMVUeft9aJLjYW5VHE+iVIN9HsGyaYSU2OzUWtNRZ05hW4qag15b0adIW4K1i1+s1psPblmKulR0iDjeC8fQ3VeVVd/yH/SXCSV4jTMrpuLt6+8GzfPfRumxxei0ZqCCfpU1PO90ZqGCdZ0NMfnoFqboHZwuHnGk7fqpoc9R7bBqvbgmeWKFGUyyo5rsBJZEpoL2a6IHE3zqIWTHUfUZJCkU4znbIqK0YpBDoeVQ1lfjtNgx//5Nlw3Ggiuo8FuNBDkbzFXDPLLcJyC+DNcNwjDJdk3KKThlOKKQTI1yI0MeTYidfoIbdpolOH7cnSSiAyaqTTnIg7NOaqUXR2b8fmf/RH+4Sd/jJ9tuQ8nelrVs2fzVHliEpsyrsfo5HMaTVOKuawoII+KKYWs20cfqaQYjOdTPUY0qro0EmaZOgEZCUlJVikWeUpaZ18r4uXlNBVNmpIkY5KBJnMWJE/LjMOhvzmdYdt5dHe18z4qLglbrFgRe/RIBLOQik8TVn2nHD9T4crnqGbhiua1aIxVML2MG01WOSRU8FIpqA+Sx+K5eCjbB6nA1D5gEm1lNRZOWss/TZnmUTVdk/UtkoFyrzhZzsNwXZKaaUVJ0DSyJZ0ks2ya4eo55gGVNiMsC5V9msFJP4toeRx+lp1FTEN76jTDcKnQSXiMi0Nn2TG4DglTZkoGpioHO/5TsnlYjtdejgjKimJOLu/P2uG4wZDqEOINgD69C9taNuDLP/9/+MuvfRZfeeL/w+b2n6M9044epxcZlyYeTTQ5OlD2rWps2AYbthy9lKMpKBpP7ULtX9zsUr0IEQoHynIQWbwsB7cmyqupAJ2ix9RpUfrD63TPQk2iTqlPOdY+T7M7l8nSr7wam/MyVJQkY0eIhb/JA839nEwa8MdRQGGxNd+ZxpesMWktNGXlb/nZVzs7ZMy0YPpa8rAOcmV1ZZ2KmyfP5WWnIw94F2bWdKpxxJARwoszz7JJVMdreR87Anoo2+Vk+MDx0uRgod2weV3qCEvoDQLPoNKxdeRiWZxyj+Gnm3+AP/7S7+Ev7/0N/P1PP4cvPvkP+PH2b+LJww9gS8sz2HNqK1q6jsCWI61EXemyuFcmWzyqIZ3mbBJtPWdJmmz6BRZUSz7mTlmOMrsGbkZI4UJoVh7J7jSqjAYsnHYFIkaEypHES/9lO5xjpNDjtyNn98GPO0gbHUhr58jKMgnDcETFjQLUFrYCA75EgLJoOcfwU1oX0uwwMkYnfFueHWIyjZL+PAlYx9SGmZiQmKrMWNm+JzPwDlnb42+mJjs2fKSYP3YmiiumrkE8Vs5g5F4SoG2jJ9WGtNdLvi1M3oS4dPHSLPDrbwKjNIx3eILxDNOWhcrksUwmrc6gU8tAYjaOdm/H0fa92NOyFVuPbMCmg09j8/4NeH7HevWgotNdp3i9mNgxWqE6slQvcjiom8pjeu1czJ+ypF81iTltUEHGcfLsEZztOKFmTYdCVJOlxbFm1o1489J3odysQo5q0qJ6kiU0j+96AD999vvYtP9pPLvraTy35yHsPbIFUyYthG1UkHCEAGXPhY6ndv4UJ3tPMGza+XmqUc3G8oFZYDk2ShGWhiNd+7Bh7+OMJk1WFCZXmqqbcO28t6J/GbJSgntOb8O3n/gfPL7lfjzH65/d8RR2ntyBpc2rC4qWxSV5IAvPe9J92Ht8N3LZFDsJhpXPKwLUmcdePsX+wMCS+qvwjlXvR1WikSRKFUsTWvzZe2YLntn9EHrzSaYiSCpLvRh+3Rjvqvt6bJsl+TAovFABvkHgJVOIsaXXJqKIy9iWk4GTy6LMrEHcrqKZloDH1tnnZtHqnMXu7hdxrO8QIpU2GzQ1DRtvYYyYZihVUyrTh9PnToMGIHmVrV7eMz6m18zGe2/4ABZMXVAIeAjEnL1i3nLcef170ZhoAnLyBLiIUk2dbhue3vMwHtn7fTx2+Pt49MgP8dTxn+LxvT9FxswWxuSGjNFcLIaMdSt0ZM9i89mnsP74z7Gx5UE8fewBPHHgfpxqP4VcnuYu0y6zuPWM99vX3oXlS64icUaYN0w/lakQrE2C9nIZTCdhv+emT2BG3Xw1Wy9DBnkxsYnTrUdJoF3MxyLjBCEuGbxEgENnZl7JjQZkwPgCFxDWaIUX5O8rudFAkL/F3Ihh+ciRpDKOp2Zz5ZGQmmz5yhXG2DQyi2xLM5SplkdZogx5h2Hzd1lm4nsZpEFz0LSQ7kmisqYMGw4+jheTz4p1SgKgCqKFqrORXzHxanzmzX+Kd626B432RORTDgxHQ7VRjU9e+1f49XV/hXk1y3kxFVNUSE3KN4cXdj+K/S3baXaa8GheWjSX86hkqDnEtQrI4h6NCk4geaKUAZ3s5CgKxTke/ckW7qUylKU+YsrKAQYyuyMn1fACZdJm02mReSQ8DTrN1Yx7Dt949gs0i7spMvvP6eOrsbIWn7n5D/Crt/4e5petRizZgHimEhV+E96x8CP4/Tf9BVbR/NXVgQkW00+i9DM465/CY9ufIJkzTm6x54dIeUuahuMYG74N140GhtbNATdWCAqrmCsGSfpwnepl+12oAEuCYoJhutHA8P1l9VBj/JQdBdd/rfqTH19y8iUrEulBbmKj4Wf5gchmPcgjJ2XcS5a+dCVb8cNffAfnsj2sOLKExqbjnbx1WuUCfOja38fffPRr+Pffuh9f+OxP8Y+f+QGuX3kzGssnwZTHZSr/6TG9P9x+CI88/xA6Ux2IxcsKJqwrFxRsT9KRittgc2jgM696ZaipPXHKB34s3KHu5n/939Ix4kyvGhsUgpSJDV67q2ULNh9cj3w0W5j0oWqNoByTIlNw+8p34/fe/2f4h8/8Oz7/q/+Bv/+NL+Lj7/gDTK9eqLYiagxbttkxE5Ex+vCzp7+L420H1Cy8YctC8QC8HKFXdwpBPxRzlyGCsuEV3OA/paWECKFgy5FMbNTCAulMil+42LJzPb634X/QkWstdJ+0VGVW2GL1ibnA5HgjZsanYpo1CY1ooAleT4FlqsolUOfjuX348ZbvYM/Z7UCE1EoSkrMLB655rdHmncCPnv4mdpzeBM901ey4mZZdIzoibgITozMwO7EEs2NLUYfJamuhIQRPAhWudSkbe60+PLr7Afxi0//CiXQhlZUZb8rfEJc0QgIM8RKitqWWfBhqpwkrBy1KK5HHAy9+Efdt+jI6vBb4URkR1OHKli91bhTNVqogOQRVJkVMkqNSduRRR0/ieM8BfOvhr+DRHT+DXkFT3JSHndN3pdIKSu21hkGhduDcbnzviS9h0/GnkDMzJH8q6pjPNPJdxLJM+FhMnynrEuWxlULkNL4pc7MkzIf2/RTff/Kb6Ja90bajHmjkZJTBFeISRkiAIV6C6/WRzAqEptMMzriuWkTsUfZ977Gv4d8e/DtsPvUsut1zMjEMJx+F58oT1WRpiImcfCmcxlqVRi82HnsG333uf/Dt9V+iSZhUSsnJuOr4Lkd2iChJ+dpDy5G8I8CWkxvxnaf/Gw/suBdn3JNMS47Jyau0qoeay0QIc0N218hxVrlIN/ad24IfPf9V3Pv4l9HSexxmLIF0Uo4Ai0KWRoe4tBESYIiX4PtZtQQmlUqrHShygIFLpeMnKxCrr8Ije3+Gv/vu7+KHj/wrjp9+kUTZR7VIp3XTnO2hWduh/BHSONN7Gl/58Rfx4+e/D6NZJiI05B0fUbVnlv6SDNX+5ksAmiPLbBi/Mgf7Orfhyz/7Ah7ecV/BzPU0tQ9YHK/g1bLtL4qTHa2474nv4L9+9Bf49iN/gz7/DM1nh95EEItUI92XQiRcBnjJQyb1VLGWgqDZmVdyQZBx6wtc/29DEeTnK7nRQJC/xVwwJDXDdcXCowl2gXul9AX7PVzoiMJ3NETkAUuaBnnWh0X7Lx9NI9XbTQvQRGe+E9/b9R184tsfwPu/cjt+995P45vPfYOqMEUGrVB1SU6WqSurxdzmGSgzLWheGpps/5AZWt1Fzu1RkyCaH8wQTDnJVdYeygxwIb3BB04Q6memk9cWTr+WSQnZ/cF75bfz8ot+SHqE7Oh8kpqchRjzeqFlZUSvDNlMCs21k3Dt/LcpvzM04x3Z60d/njnwKD7304/hY99ah1/95u346gv/gv19h+DJkWVZDXEZQ5Un8clUMs3lLBWgnNIzXBcIVYxM1zBdkL/iCnb8EFciLqyfxd1YISisV3JBkOwYcKXnQogQhGwd62g/hxcObsSj2x7EibajVEmy71cOANBh5ytx1RW3qjV1Tq9sKRNC4+9enqpRDjiVa8euoZQCP0ICgwNb8xD1o+oh7xMSkxRHGD47A746M+14as8j2LrvBbS0tKgHVclzl9XhqZdIOkKUjpAAQ1wURA3KwaVOJIlD3buwfueTSGappGRBc94jmVhYMGkFrlt8C+xUQi201mg+Oo7b/7wSKkNRN5cAOrMOovEoOk+1YvHE5bj1ircjqmbDmU7XZnJ8vHhkPdYfflxNkEQiEUV+MmEkz14OCfD1i5AAQ1wU5Pkacgy/HZFFzTk8s+txHOndq0hOTHVZGldhVmDdsrfhiik3khSp+kiK8XhcmafyYKSBx2O+1jBIxn7Ox+SyGXj72g9RtTYzvkyj7IohD7bn2vDkwUdwLnVGVg4q9TfwzGVRs0KGIV6fCAkwxEXB02gyyukpSR+VkQqc7juBnx/8AXJeDLohi5xdtVawuXIu3n3TJ1FdXYfe3iSVoKbMRsMoLHy+FBCxdSTMGO5c92GsmH0T5NkjebNPbYGTU6efOfgYtp7dhHI7jghNZCG8AeKT90uFyEOUjsKBqK/4Up3hea5UDAxIDnZjiUshvGJuNBDkb6lupKAv/J9E4ZDIfB2OlsFTWx/F9sNbkPGTyPoZKIZzgEVT5+Otq96DymgNXNBkNF11bJ8pu0BkoM2nkqJilFUjsv5QbpQoqni+xJL9cR+ogYOSoPbgqkF9EpY49ffABYNpVh4vIOv4+BvD1C0brjwEKpnEoubVWLvoNth5IbU8XF+eqGfgTN9hPL3j5+hJdkCeYif+ivoT81ecfBYSHA1ItIKcSmuQC0TQhZJr/Xkz2PGnIMcfg10JGFzXLtaNBoL8HexeUoBD0zrgVP0Z6kKMMoIyuZh7JQSWYBGU6vf5kDlTX0jMttWzOyzbVMf1f+Whz9MUPggjJrtKdNimgbhu4+2L34d3X383YloUTjZD87Jw+IA8oEiClllnfiFHLvTHpBB3MTMFMlsrFVa+viBVMqvrG/xe6JOREgXHT+rWwu0KGsnNzTEMN8eIu/D8HNLpFJY2Lce7r/llNMWmQZPHVzJeer4Kab8PP33+O9h7bBMSVozq1oWrFShaVKw4gYrXaEARd4BTzXSoK4ILllb0O5UjQ1xQWOJKCe91jjduykK8JtjU+gQefvFHyOS61MoMIaM0TcRysxJ3rf0A7lzxIVRrE9HnpeDYVFG6g6yRLRALGUue2TFWkPP6NIMmeoJknU9Bz7i4fsZa/PLtf4z5DYuRT8vT92jSyvIcRv7Jg4/ioRd+hnSeapaw5cxA9SnEGwUhAYYYVUQa83hsywN4fOsv1DOIPaoP05AnsVlIeLW4Y/U96mlzlXY95Mluam6Y6rGgUqRCFt7HAj4yMMw+2tk5lGvVWLfwXfjIuj/AzIqlFIQ25NkoeZq+vuHhePcR/HjTt9GNc4iWx5BOyew2//WvSwzxxkBIgCFGFXFUoD3Zhm8++UU8c/gR5JBSj/oQU1aOqKqw6vH+dR/HL9/4a5hizIDflUeuT51B1Y+x01hyMIOWc1Ht1OEdi96Pj932W5hRtxTy3BRPFmpb8iCkPA537cQ/f/9zONK6V5GhR7PY0Cy1c0WdGRjiDYOQAEOMKmI9VbAiEXTYp/DVh/8Nu49vVRMecgKMb1CFscbpmShum3snPvWO38T1S9chpicK/CdDUGOoAJGPYfakq/DJ2z+Hu678CKohj8pMI2960KlWfZq9Rzta8PVffBH7uh6HPDfFokkszzcxaJzLPuCgU7BDvH5hTF1XXXgwegkdr1TRIFfMk5H26QMD4a81xjseYxtecAkGoZR4ZP2ewnGENG+7Ut042L0XxmQfs8uWUAFSBcqjPW0dnuVjYnUzrpl9NaZG5qGxugGxWDlyGTlqy4Rn+Hhy65M43X4AtukoMzrnuFgx/TrMn7SU5rNBwqJqo5+nuo7joRceRqyiDHLwq0w9T6icjDWzbkPUi8HRUjAYp3K9CtcsvB5zJi6DYZB05aFt8tyOdpq+cWBrx3P4r4f/DttPPE/TXZ6xzJtkQoXJl4MQCnMdo0OAo1K2g4vulRwRHFzQxeKKxC3gUtkhXbh+iJO3ccTF5qc+qvHsT/t5LsQoIyiTX8mNBkrwlzXKNOQhQ7L1DTh4dB++/5Pv4Geb70V3/pw6Y9B38oi4MRh+jORWgatX3Yiayno4ngfb1tTDizJaGp6cJh3No48ElqJSE2Up6/IGoiAElXGz6NG6oVfmgGgaaT+FzlSaZndMre+j7apOthFWTkQqEDPL4Dkaw2UcKUfVmr/aLHa0bMIPHvk2DhzbyWs9RCyZ8BiUVvU26O/XHANxGY4rghIuDb64mHv9YHS6szHG4HU7g12ISw+u69Hc9dRuiUjUVjtF5CFK31n/7/jhc1/Fyd5DaixNd3QYNC1ld4ihx5HOeHw3Cw8Yl5NjfCo2owoJrZqy0ka6V4Ob0pDNOVRnfuEgaZKXFZVDRzV46Qw6T7Yh4VZhTv1yTKudC3nAkaomDENWfMmT4iwjqk68dnKyk0NM8xwe3Pe/+Nqj/4bn9z1J4Sp7fKkhsyTUEG94XJQJXAzFZOhIvS5GdmNrIl6IN3p4xVBaPKgATUsRoHo2r5yfR9fntePw8YNIpvpQW9WA8kQVXFlEbMqx8hoyaQeRCMmQik3LaOrYrKbaZsyaNBPTa+aiId6MhsomLJy8BFMbZtBINsmTJDhe29PbCYpGrJpyJW6/4i68Ze27sWTGSlRFqqHRP3WqH+1YU63bI5EyRr7loC3Vomasv/3Mf+BI6z4wSPVcX4m7jFnKjpaxwriWLYMqLbjhX1w0HeOYPMHF5qd23V/NKNDLKEQ4MBL9FstIUIwABxaijhfGtdISoxNecN6VguCjqIL9lW1hlmUV3m156HpO7ZSQB13KNjgrH8eUmtm4adVtuG7OTSS2JpIN/Zc1erJLQxxNVF23qCYZNs1aeYpH0skgnetBwipDGU1ZeaA5L6a1SlWop9Dj9lIxliGaj5HeHORJwobsV2YdcTQ5eotmNz97pL+ObDt2n96Kn2/6AXYdfYHGdQdDEIVowqGClWFEW5SlHPk8RhjXuqTJ8WL9n18NqliH366C00FP+pc1jRcuNj+NKa+kAIuloYSwCpcO/4aLS8b5GG+iKoaxiselk77+D4MgDwaXLWIu2Ut4M5fLKuWl52izWlRjVgYt3Sew/fALOHXgOGY3z6Lyi8MyIyx78TAPz8qRuEx4rhykKsN4cjBpFBWRSti67DBhg6ayk8s1OV+QjU2nGW07MXVYgUZ1B9fmNbL+hh9looN1WZ7Sdqq7BQ9tvB/f/MWXsLdjC5yqbvVwI1GUQsImTWQrKo/xJNT5gq89xqwe9b+POl7B48CfxiwiwRicn9q1fz2jOFXzl6C4yaxYKRh2ARYJr1RcOgQxNvEYub/Fi7wUjDQevpuHGdGweu71+OzNf41avR666SIrp8nkbRInL9JIZh7JkCYueZB1j3GXrWpSU0Q5ynijnqXKtOF3G7DjOkk2x19NWL4cZEoFSHJ1sg4Ot2/G3//kT3C875DahxyhGk3pGRTmVS5My+VZjyQzSqgfzN9SEBgmVf94YnAcSot9iBCjCNl5kcr0YuuOTThx9jAtTtmk78L2rcLiaUVM/EAlJxO5Or+QHb8yQSKjIqICNZKjrcUUIdplIhdloXIa7emzMkZCki1Qm2lq6izCdCZNMpUlLSU08hBvWIQEGOI1g1gSdtyCm09TCfqwIjpcKjpReRkti42H1uOB7fdiw8lHsOPcZpzo3IdUrlc9U8SQB7WTCX3Kt3O5drx4ZgPWH/s5frbtm/jS4/+MB9f/EFnXUbPM8kB4m2Qpx1uJkzFNdZJzfzxCXL4wpt7UPwZYBEEiOfjL4ihFwpfodSDGymQoFWMVjzdK+mSywYwWlsTcuvIONdMrh5DKUpjufDd+sfVe/O/6r2DD/qewae8G7Du0FZYZQ3PDdLUzQ7pvV/ex6eQz+OL9/w+Pbf8p1u97AhuOPouaSBWuXnQrLC9CS5kmsq7hdNcprN//KPVhkgRqkBgNuJqY01LvLkzLZVuPSgqutLgFhlmKyT0KGByHUAGGeA1BFecbyLmuUmSePC9EtxH1Yyiz4zAiQnAZpPJdON6zH88eeRiHO/bA0z01fijnENoyweFl0dZ1Eul8D/RyHRX1lfCiKbVWUFV1tX9XzGtZDiN/59U5fmIGF1YSlNaIQ7xxoKvxFDWmUlhcPNjxW2UmDHWBCLpQnLwF+B3o1OtCL4q5Ygj0u4gbS4xVeEH+FnNjiaDwirkg6OyJxSSVg0YjdlT1zGptH9Wa4WvIZwoHEfiuX3hSXdyGYduKtPrpTJ3OIvymzhaU9X28x+1x+R1NXbGxLReGrOeTrXO8xpPKLvWdpOcxPJNxY0j9MTofQeko5sYSQeGJGymC/OS/Ah8MdRKc5OdQJ5k5bMdbzgur3/Gn4Yc3cgwOm91fcU9VFsvPQ10RBF5aajkFeRLkQowAQRn6Sm6sQMryqP4kDKknrPiKjGySo9RMfi2Lll3PU7s6dN+m6iOZEUq5yfQt4ev0h04e4y6xNeVaOZBfZijVUdPqWxIrKz0/yekv9IHtiYbvJbLU5dKC5M8Qp/IswAV8VdQVJYOAi4uFN8oQ/R8iRIgQlyVCAgwRIsRli5AAQ4QIcdkiJMAQIUJctugnQA1qS0uAy8ts3FA3aBblJScv8WaIKzZuqVb5D3EyRhrod5ArEl4xVwyBfhdxo4Egf4u50UCQv6/kgiEZOFwXjKCwMp6GnOx3i+noTsmT2vLw0Auku/guy1h8mKxvlmkjK0dgRX34uquWsMjchXr8pUycZPnu8lqG4/kOq63HD5paU5jP2HznPfks6wHrrsFLHV7P79x8Dxyp5qOQ1UHpeyU3Ggjyt5gbDQT5G8gPdEN5RDlp4LLtbTiOBTvi8IaRbF4VIsRrg0g+jUguhYgcTOrkoavKXEbuqkDSjcLxotDUHjiSozx6MxND1LfVzg6TZCkk5hsuPDvXf6yWrg5jlRliExZ8l7/phXP/ZMZYyFEOaDD4uxzVVVgQSydvIS5LhAQY4jWD2udLMvP4Oty2A9tOPo+tpzZi65kXsKvlRZxLni2oASXhSVqGjo5sG4717MWZ3FG0eSew/9x2HDl3AHmbmkFUnysn0OTgR13sPfcidpx9HtvbN2N76/M4fHYvPC9XOLKfoWvq7Bg5WTVkwMsV2jV/ObN0fawk6oUourUmAMrkHQL1VQl1caThlYpSwhsNjHd4gpGHOfyMFsXmUODJAQXTKiYgn3WR8tOwKPisWBXa+zqQyXcjHq8gVdIM9ntRoVegnC6XdpCjKqyLT0S31oZ29yxsz4Jt2HCpCrv7etFcNhk5h4RIkzjK7+UgBTkyP+eloZtMpzChHDHjF9YPjife6HUpODwxb/s/vhpUNRq+PrvY8EICLAGXRiUaW4w8zOFntJzr55qyV9dHmenCdZLI2XISDE1Vrww+TWINGYpEg1U5CiNKc5aMlufvppxbLw0kayOlJ2EnLGg9GgmQprOZpulswnQyNIGBPt6fsCIwcnKmlgEvTz9YIeRsGd83YGge012I03jhjV6XgsO79AjQaO4/EDVoM3hxBFRydXuQH8UaRJHwSvGiJASHVyQWo4LLs5IPHzbNX51la+QLx1/lXQuuV64OMM1l5aFENHtNXiPP1aQZbLkFFafRGaIeHQ9m1EJWy0pk4KfzsAxLjQtaTpTSLw3TtmkaG2oyJe+6/JuKj9GWKqW2w9FrOXS1lEoWlutFooi3Y5a6YYSnXf2X01TJF8ZCxgLBLFxKJo+ZWqQnJXhRMsKG8moYPum8EsJ8Hl1cGuFJ4xxm/VCXXZxaHP5dIUKECPEGQ0iAIUKEuGwREmCIECEuW4QEGCJEiMsW2tV/Mb1/pHH4A5GlTZgMcyBzAIHhFRmULRLlQBTxIgiFSy+8oQQvSsZlO9A9zhirdI93fgpeizCHYmzjEMAFRcMrpS69rPv4STwcDU+LYcD/4bgiCLpUXBGUcGkgVKpH6kmIYSAok4u5EJcfgupBkBv0cThuEEITOESIEJctQgIMESLEZYuQAEOECHHZIiTAECFCXLbQrv6LGaM0FUdvAreuyDO/how8jgqKhcevhzszJV70fxwM5WsJUQ4Mr4jfo4Hxnv17fYYXXDeKYbzTGIQ3erkKLok0DjrMJVSAIUKEuGwREmCIECEuW4QEGCJEiMsWIQGGCBHisoV21Z8PbIULxvAHLcWbIK+KcGwRb4c/YVIkPHV7kB8XXlu4qmhELkRQ8kq4vYDgX4pfPzJcvgPrQYU1Orgc8jQIb5h0D5o8HUUFKJEV74a6YpCZmKGulEpbJDz1ODz+NtQFQIUmPwW5AAReViTK8nWQC/YkxOgjKKOLudHAWPkbYtQxiBeENUKECBHiskRIgCFChLhsERJgiBAhLluEBBgiRIjLFq86C1wKSpu1KRJske1tF0Lmi0vh7xKSWWyLXbGB7TEa7y4W3hgFpzDSmbfA+SZmZzFfL42ZxRLqxqiAJTu+yb5E8nnscLHhvYYKUCI81JWCUittUHhFXDGvAy5VbqwwnmFd1gjK6GJutDCWfocYLkITOESIEJctQgIMESLEZYuQAEOECHHZIiTAECFCXLbQ1v7ZNDXkP5azNmPjt0wtBsxWqGnIC8Mbu/QViQdxQZhyaf/HwVB3j0L0gtI47En1i8BY1pkgvP7CKy3zi4cX9P3IC3a887MYxjIer+Z3qABDhAhx2SIkwBAhQly2CAkwRIgQly1CAgwRIsRli5cmQYphvAdKhx+eRDso6nJ/gB+BswGy2Wyk6SsSjyLeFg0tKN1BURaUEOVS01fa1cPHaznQPR4IjkOxAiwVwekb72Rfulxw8XgdK0DJHIn+UFcs0waIarCTQ1hHiiLxEO8DMDQGAy4I4vNQVzKCPCnmQowygjJZXKkIqjHigjAa4V0+kNYaIkSIEJclQgIMESLEZYuQAEOECHHZIiTAECFCXLZ41VngUnBpzxK90qDxUPjBX8sT5wIw8hlAXltCUgLDKyV5JWK8D2Ydy3o03nW0GMY7GuOd7tdLeJeRApQMCnJjhaCwirnRwZj5PGYeX84IytQgN5YY7/AuPYQmcIgQIS5bhAQYIkSIyxYhAYYIEeKyRUiAIUKEuGyhXfmnU9X8YThLdLGQGdygKVgdI99nHIRi4QUjMN3iRf/HwVC+lhDlYedpkfBGC2NVtq/POjr8ulEMr890XxxCBRgiRIjLFiEBhggR4rJFSIAhQoS4bBESYIgQIS5bGJNvqPqz/s/DxvgPksp/Jjz40M08PIefcjpcje95H77vwzAM6Aav8b3A+OkeHa/xdN6f9+B5HvK+A99z4Ws2c8KgXw5MvvL54FH7PMPS2WX4DEM+u/SDnsE0DTiaA4P3ar5O/xiHItvmDMOD4+egGT5vdemPB9PSkcs50PNMg0YnYTAusvVOkqLxb3nPM1wGDlOuYWjSf+WZJz4c+qchr/n822UeuICrw9bi8BivkhCQd47466WYNqZRZx7zb82QSPZfMCwEZGgRaJI/XoT5yzCiTEouCcvXmFqTecT3Qc5hWTE2zApJP4tD4qpJGbOsmE8SR9fnNcwfjRmpubxI+WWoMmL2M8Dhz9JIsbosB4v1UWdZS6Dir7xL/TRsk4WsIccy8KQe8SdNrmGYcl+OZe5I2bIe51kpXS/HSEtZxXg3y60fUoelXosr1t5ey8mDAYw/F4xueC/NApeCcc94ISwtwkrDSp3PwHLjmFA5A1297bBtG6lcH7qSHTCibCJChAG1WXdJOPy6O51CTXkNamNVyOdcRGJxdGRyaE+fIvFkUWZUKhKVijsUOZcNk3W0KlGDuJVAOpVFJGoj6XWhly87H4NGYs6ZKTYvi7E4Px5CrB7DKo/VwsrbbCwGckijK9UGwzRhG2UkwhwJkUVi5JCVdmJasHQ631ZhltllqI5Ww44mhHuZ7nZ0dJ1BZ6qTzYfxs1wkEowHIkh252DESjv0NahsNacCCcNFlGWQt6I42HoQ0XIDMX4eLkqpM5qXZodVgTTLzKjKI9vWjcm1TTjrd/Zf8TIqSC6G9BgkIdfNw/GEnKUO5JgDQpgkbOa7Sy7MsvPLkaaEsHQSuJSH6zJdPskwoM4EwSXB+sz4BNPu51gv2eU4uo8YsyKTyZLsLBWmEFpZtBxlsQpMrG5imVegJ92N0+2n0OclWXfbSJJ9qKhMsGKYSPVkwWJ+CcPJr5G3w5Kb/gUYby4Y7fBeFwQoYiNFMoiXxZDp6cKCCUvw/ts+gYZIAys7sO/0Hnz9519CS/ooysvLWDEvbPQUWVL14WTyuHXV7Xjn2jthZCMkKw0bDjyFHz71RXh2HxtfhVKYShUMQd7SkMhV4H03fQBLp60kMejozLXiX37w92j1W9jcGBl+55oFNXdho9Kwet6NuPvqjyDhVkEnOa0/9gS+/rN/I1GxoTtUo3zpVDMuyVYn4TRWNmHxlOVYNesazJ48Dw3l9SjLl5GgRWnmkfEySGd6se3IFhw8tRdb9mzAgTO74MfJ1BH65Q5qVcNAUNn++Xv/HQ2JOionG2fS55jeP0dPvoUqevjkWlKdoYI2mI9pJ4lEeSWazNn47bv/iKRT0X/By/CctPI7r1lUzcxzkx0LOw3X7VYK0RRyYyWhCGQHSLoSdc77NOZfnvF3mOe/9+2PMKxUwcNXQZ53C3n6nihr/kXFJ6Vm5lOwcnE0lU/DiulrsWLOlZjUOB3ViQbWPcaJJCeWgaj/kx0t2HNkO7YeeA47T2xGa/YUzDKStkv1KL6KqqXy0xlHccoiCcDI22FIgK8LE9i2DGRZISyLvWtWxw0L34R3rrkHUxIzMaFsMqrL6lihduFI6z7YEVYiVvyhcF2au1QATsbD9PJZuH3ZnZhaPg+NFZPYqzvYsPVhZNFDk0RMSzFrCvcNhjSgOm0S3nvdR7GsaTWaYlNQW1OPbftfxKnu4zRpxDyl/qRJnGeLG0qA8vfVs67HW5fehQn+BNRUVmHTwSewk+SlkVylwduUEm6aCsOswluWvgv3XP8RvGPF+7Cwdhlq/UbEvQQ7BItkS0e1EUUMMa8K0yfMwqJpSzBt4izVYM50nEIq36euKwVBZfvR1Z/ErPqFaLAnwogY+NHjX0ZG6yKJDN/vUupMxvWQiNgkGpqItBBrtan4pVs/hcZoE2piDee5WrsJdXG6aC3qElV0ZaihVVBjNaKurBY1iWoq5irURGp4fT1q4gP31qOaripWh+9v+gqVIwMaBqg3qcpNdla0RKIkNea1mNFlbgNuX/NufOzmX8d1896MGdULqU7rYbsx2CwlsQhMmvVWLooqsw7zpi7E8jmrMalpMtXgObSyvISOhPAG8krKUVyxvBvvdhiE8Y7DaIcXYOhdevA8V6miZCrDHrUOa+Zcg0Re1AAphT18XWICVi1Yy0pdTUXw8jjKYIhJYlkm4tURnDh3nKZwkqlnb04RM61uNppqZ7KX5jXs3Yvlseb4mN40A82103kfidLQUKZXYc2C62mykQzyDFspR8nWCz2R8bO59XOUUszT8nGMFHYf2kJl4CCbpTnNRu9S6lagFm9b8R78ztv+EFdOvg4VJDghTyeaRofejqPpwzjYuxtH+vbgrHMCmVgPlXAeZWYlVk6/Gp985++yMb4H0VRVf8gjg854CzR2IFESoEETXadyHivIkFqOeZ3Oeuy0gFilRXO4kySVusBl7CySehZdbpodmdzNvGUn5rM8cp6GPjeFPqqzpJFBjtc5eV6Xzyjn0NTOOn1FFVYQRPUqUmLZy9CE2+2i0ZqET7z5c3jv2k9iZs1SxPTKQmcby7K8TuFodi8OprajxTmELvMMtATrM+NZadXjxrm34yO3/BoWVa1R/otJLupPSFbcpUByb2S8LkxgjQSRt2Po6UlhzfTV+Ou7/xGN2hS4cfbaGYuqRMPmk8/gH+79IxzvOsrGeaEysbNRpKwexGti0DoT+MsP/RPWTL0WuUwKvbqDz//wL/Dsnp/QVhbT5sLxO4FGFXn3tZ/CR2/6LZhirpAIZLLiSOchfOKf3ous3ck7qeBk8kIZS+cjasXwXx/6PqY1zlXm+MncQXz0T98OvdJHKpeCYfO+tIlbl7wTH6TiaS5rVgPteSqhbTSVnjr4KHa1bEc2lWO8qRYNA411k9A8cQZum/92zKybxxZqqwH2g1178P0nvoFf7Plef+jDQ1DZfvWTT2Bq5QQYro6T7gl87O/vRDJyTpl1w0UpdcYnmes5m+aiBz2SR02+BtcuuI75cGF/7RsyYWKizKjD8llXYfG0KxDVEiTMDmzcuwFbjzyPLEnPNGwVB1Hp8i5OiMZxHDy572dwZeJoGPB9DXbUQirTi5gRQ4Kd0z1v+TDesfSjsPMMg7+n/W7saNmMTfs24MC5PejKdCJH0zcRSaCWHfiKprW4ZvEtaIxPRp4WjWul0dJ1CL9174dZx3tUnGRsWyCTdaIKg1BKngYjNIEvygQuhjHLjKzM0tKE7criwzd+CsumXQXNZu9L1WRHHehsmA3Vk3G05xD2HN0Jwy+YiHmqO5kRlPmTLNjr0jSWGVzXd1BP82fVrDWIGHE2GAvtvafx6Iu/QLSC5CkzgwEEaMercPfVn8K0iqk0lZNq4kJzbZQnYth1/Dm0iBksM82ZHDzTBX1GnpXZt12axjamlc/BL637FZg5xo2k+/D2H2PT/ieVGeUYSeSoVpbUX4PfuePPMDnRCK0rio7ydnzphX/DP3/vb3Hg9ItoTR5DR187enJd6Mx24mTnMYa9Fet3PoP21BksmrEIkVwclXo9Vs9fgYc2fh+nkmeofKuQ68mjuqwCyUwPxa80MEnjYBfcIO5a8X6Ul1UqM86jcvr+E1+jGs2occ6hsFgHPJqHeZqUJhuuybyVGQhTJ1GJrejJbLlP8pZxTjHzNKV0RHkz69jgHV7HDyQqQ4iQUcoijf2tVFFn9+DAELfv5D4c6NyNvce3Yc7E2Vg4+QoKc3aKuoHvbfw67t/5XRxt34sDrbvoxw76sVuNkR44s5Ofd+Fw217mf/BYZlB9jlJlH287idrJ5eg90ouP3vAZ3LHmA1R8NsvVYL108MWN/x8+/8BfYj/DONNzEt2pdvSlu1hubWjpOIatJzfg8T2/QOOkJsyonQ0tZ6Kyoh6zJqzAxhd+wbztoX9RWi3SwVClMt80qtmIEVFGhs5XlmUo+akbzF+Wpcc05/mu58vgucw3VmJLMo/loBQu82MoZGY852VgmzHme4x5xg7C72U4lazH9CedQkLGTG2Kh3wvTIttjpaPYTK/tByJOUqx0cdyYofCIByStUwSyciImZcJIZY3I6wxf+Wz71iMVwQWBYptMq7MXyfHehHQsY0WXo2Txi7kUYRvMQNZgDOnzMWcKfPZDGWQ28Oe07tZuY/IJBpM38TiqatQVVFHmymPnJbl94WBZDg0dfkmix88T1SbhyMth0Ed9dIYS3VFjZq1y8vUqiKDC1Efq0NTTZPyRypDWmb9eK8Qw4TayTSDTRYqK5+0ZF7l0HTP8yVLdNysj/mzFymOybNiiiJo72mjWpRKzErFBmTpMcxonk1CpckrZmfCx96jO/Diro1UFWLiscKycgfhWN9hPLTzfmw4REKNMg7MA9uK4vZr70FttJEklGbcsrw/y/AK6mIs4HgRmsgV0O040yizrsxfKqYkG1gGZST6SvXew07AkckJVv6M41FR+chQDeXZbVzKyOaSqK0ph5PMYc7UBVgybyXLN0biN5D0u/Dtx7+MRzY/SBIm6fvB+SwTXF097Xh6y6MkyNPMK3bMcNBYRRKcMo/cb7GjluEU8hffZGmWbpH0SCqumWMe0vKJkKQi5cw/5qGe4aXSqXUwT1uQp6WTZ5txDZNtgHVapwIIQN5jp8N6ppZcMfy8LJnifUmvj4TXCSMhnY/D8klLpWXbYYTYYckSMGkDrsNYJ2NwaIWlGSUzEkUkGlerF9Ik4pxezvhWqTLP6ZWqXXpWinW5D8lsLzKsizJe/lridUGAsH3ksi4Wz16JGRPmgtzBCpPD43sfwbN7n2Jfx16GKnDZ5CupBCfyL4eFT+VF01HITmdBy6yf0JoQnqzlOkDl0JFtVX/LeN7E2mbUVTaiYAkFE2Bzogl1sRoqPA9Z9qyHTxxV/otimT15KWJaGTOUhEdFo9bLSa8nCpTkLb386gVXsmIrJqbJ242WtmNqYkXIzmDvHtETmEsFFzMTrGes2Ez39oMvYPfRbayYHuOtM93BFUYvA073Hcez2x+HS7XlsYPI5zQsn7YOEZe9OU19i37kaMbLmsqxghC6w0wU5a1bVINstKlMN9tXF2ykmLYcomywOhuZQzMyk+5j55RHLB5T+ZClIriU4bEjqignSad0XLv0ZsyZvIjFSYJiue9s3Yx7t34LhzoO8G/WN2VJBEAUfz6FjbuewAv7nlLWjQyZ1JfVYenc1bRobLVGVcZCZVmNRZXnU1llqb5l2EWGOCIVEWiWASdLQuxzYWRNlOcrSboM16W6zjEMmaVnUQt5BkGn3wY71WwmzfqSQzbFDjLlsAwyFBAkVPKmRvMpm2T7yrBjy1IluhZyyawiRJ1SL04iNqjmNJOdM4lSZuV1NtAMiT1PK8VUE3G9QK4Tqb5OpNM9MKns44k4RYSp1ka+lnhdEKBOQomxN1kz71qU69VKzXfn2vHs/kfx/OFn0OV1kliAWiq0ORMXUrrL+BsrgVpoTEIimciCY+m9xAwWq6w9cw77Tu9TZEjGRENVIyY1NLPSFu+RFk5cirgZJ+m5OEVTZtuBTSRfMel0zJ20nBV4IisAKwd7XlmLJtJe+E7KuCZWi/mTFrNCS60GztEsPXL2kFKvKg4EDQPUV9bzGmkjsiDGp/nUSdLqI3mJGigsrwmC7UeYR1GcPn0MnemzVGFUqTQ1EtEyVFXJZAgbBvPBVUuEggl+NOBrvYxrjoqIZj9Vb61RhcX1i/CeKz6Ku5Z/DO+le9/Kj+Oe1Z/A7cvejoWN8xFng8/29jB9vYjGgxXupQKDpO6SdOpjE3HdkltYYmXKCsjk+vDA5vtwyjmGsnJ2YFS/Hht6EKQOCLmcy57C5kPPoivTAZMWQJSveZOuYD1ISO1V5S8EpDozvkwSnnS2WtZArq0b1VTLq2esxTtXfRD3XPtbuOe638edK38VN8x5N+bULEcVKuH39aiOJggqBJKkwTo/r2kRVk67Dqum3YL5TcuQyDPcbgNTypbgbavvwsfe9Bncc/PHcdPyN6EiWqVmvj02Ol9LIpk+Bzvis2PTYKc0zC2fx/L+GN6/5hP44FWfxgev5L1rPok3LXkH5tUsQyRdjmxXjvnoIhoNVqfjhdfHGKBnYf7kJXjf1R9GhV9Nee/i0V0P4Bc7fohkspOFtxRTamaSGFmxYg5e2Pp8QQVS2tsWzRCqQ1dngyTbyL4BT9QUK1IV1dyVs6+FkSOFxTTsPPkiDp/eL11jf8Dn4xO3/DbqojR1o8CGfY/iqW2P4Zo11yDil7OXjWL7kY04fHYbDLsMLm0XGYeS8UYhnAWNy/COle9h7yjLO4DtJzfi55t/TDNGzAkxl9OI5m1cNXsdptfN5jdinpvYfmoL9p7ZSvry2aPKrhNRbxfGzyGxmYy3TtkRKytDr5vE6d7jONi2DTvPbkU3lZbmRekvtYpMBPTfdz7ob8APd678AMrjlUopi/ly71PfgBMJHgM0bbI5RVyZX4kVU67Bndd8GHdd98u4cdE7sXLW9Vg+4xrlVvDzitlXYcnMlagvn0CFT7Owr4OdhpRNcOyCvmX/pgStjAOvmnkVCWQpU2gxJR47yCdwqHW3GmsagOT1cBFUn2X2N9mbwopp1+Bty++iMI+xk/Nxsvcgvv7IF5HV+xDLUSmxl00baRgDvdsg6D6Vrp6lws8j1+VhFetgXVmjGuezElE8+sL9SGnnmAaaqBrJVMxT0yMRMrF9OmZVz8bHbvks3nHV+/DWVe/BtfNuwbKpqxWJrZi5ikLheqyefx2mNk6Dn6ZJm+6lKXuhss7kcyxDF43xJvzSbZ/GO1bfg+sWvpmmeBOOHNuDG5e+HR9a9xu4acltuKJ5FRZMvgLVFRXYsX8jOtLtcMSy8bIscxnnNdFgN+PNy9+D99/4CaxbchdWzLgOS6auxaLmNVg6bS3L/Cosnk5iTtQilU6hs6cdeUNMruGXSal4NU7SlUkotWgUMODXcFwwCt8P/C5v8snpy2LmpHmoitSyN/NpPrh46Jn7+VsGrd0tOHhiDxs1Gw7FzdIpy9FUNolWhfSWhQF2R5HQQJjsW2VZDSvf4RMHlZkqv1iIoLa8/vxGLXGVF99NmmczmuciJ6v/SaYHTu/F/pad7L3b4PE72RVRX1FPBVjorV2HlVa84MtnxW1qmERTwKZaZIHQnJHxv2QuqdStKEoZh5Gtbn1UQmI+igyUrVz1lRMRt2hyeaJkZSa5MK40OC/lZUZoyuhpnEwdxbee+Cr+9Gt/gD/66u/hq/d9gUrzMDJsXDpNbFGF+Vea8SxE+nxXBC+XU/87XZYNzqY2uXHlHfj1u/+Mvf5daLJmwmID1g02eprBHp1GM7gyX4UFtSvwnms+gfe+6VdoTl5BM4wE3Z8m5a94WvC+8N2Q18sY/Uak4jHE+TKuSWU7uWEabCOOvMM4sNPZf3o3Mn4SCZPqLWmoQf7eXE+/T+dDxntzrCeyc6lN1gB2t6KPKq0v1Us1ZiFmx3mNrsaQ2YLVDLXr+oiw550/eT5++V2fxFsW34WldVejBk2wnKiaobdItrI6IeHH0ZxoxroF78Kn3v2nuGHFO2CylxCrQqVDIsH/LIYvs8xuNo8aawImxqagwZyAybHp7LBuZef1fsyqmYOyXDWsvgRimRj1LtVfVoaTdEQTMt5LgmYn0FQ9Bx++47P4pZt/A3MaaCnJInwjQ5WYYt1Os7xdVLl1WFC/Eu+77sN495vej2lN09XOp0KcCi/5V4he/4cRYnDZBbkLu6fXEqzDIvPzvvTTsrKf0TNoGlTkcM3c2xDLWzBjLnafPohDHS9SMZUhX2bg+UPPoIcyXIqlzGvEu970QWSMFMpjUZoAFCQkO5PEJmOCMhYY8+JUDCSh1DG0dByn/ZjnPwO3rbybDTUGV8uRqEiEwqgREhPJ460r383wKhBLmOjMtGNny154VTlsObCZ4Zooo3pbOWctldJUZqyLhFYYNLYSlWIrYN60hfRPlmJ4yJDcNu58HhVxA8nOPjVrXRGrRC9702dbnsJZ/xRZPyZ1H+vm34w7Fn8IFcYk5MR0d9vZbVHRMgyHL8+QGecslYYHmwrPYJ700GzOaO3owVl0aT1sOGwUEh9Z6M1OQ8YngyHVIcj1o59jVMVhz+3Q3Dc1ql0ZVqTJ7dGuk7x425Xvxq/c+LuYgCnKnE9Hkzh87jAe2/EQfrj+u3h4ywPYcXQnziRbeE8WFhvt9ZNuxa/f9vtYNHVRoZMzHfTR9I/kY9BzMt7ECithD3EyrMFKQsd4qmU5/Fv9UIDEVb4QJTAaFoqM6cb1Ssyom89QTWU5SJDPHHuEfZRLtZVBtiLNuNNENVj2Acixo0qwM7KTMUrlDP7sJ5/C2/95Bd7+7+wM/nktjqf3s9OMsc5a7Lw7WedsmCS52dUr8Ok7/hxrJtyuxqp9dvpn02exkZbHL7b/ED/d8g08eeAx7GndiV6nm6pM1ig24leu/13cfcWvoMyggs8nmV0kLmaLyc5GSNhhxyR1VEo6z3yfUN+M963+LCabM5mt7K4ifejU29Bjd6Ld74YflUk7JjqVZG3qI6nNwx/e/se4ecpbSOAxqk2a9z3deG7vC/jRxh/h5y8+gC1HXsDp7DHq0KSymNY1vQsfuu7TKIvUMC0UFWaK8WK7cykRdIvXydiglNdQN7owJl9fqUzgMTNfiyA4PJqCjiwCZQP32bhYn2UsZF7NUtx57QcQzVEtUek8QfPz8d0/K6z3s2nOpQ0snLIUTbXNvJ6qr0LDpr3r0dHRBsu26QPN0YDMy1OZraT50Vw9laKMhUDz7fkDT6Ct77Sq3DLBYURMRFlgd954N2ZUz2e88zjQths/e+4H6Ml2o7l2Bq6YcSWvJnGTLJ/Z9SS6Uu1qR4ioO9dzSF4VeNPKd2Bq1SwVbmv2DB7g/Z25s1RE7LmZDsfJKXXRfqYL85oXYkrDdFawPBKJBBbOnI+a6kqk2nvR3d6NdrSxAooajDJuNGszQj4eCZ6ELUsZmFQhuQhVSLElHqXgzpW/VDCB2UmkvT58nyawF81SOTAcptEw2RqpYP1MHtdMvw0fvO3jqIs0kHx8dLpn8dCWH+FfH/gLPLLrx1i//yE8d+gxPL3zQTUTX11XpSauDJJgdXk1Zk6bjhfZcFJOEqlMH+KGHBIgxwS4zPtBZDwA6Swt6hExgWfQBJ68RJHwgAl8sHVXobGOUv2WGXzDi2Dd0tswvV6GKugvo3Xvc19Fa0ermviROiLqXYZACgR88ZANAKm+FCaz7nzgzR/H8klr1L5wjXV14/6n8I0n/x3f3fRf+Nm+e/HkycfxwgvrcYCWiVhEkxuaaT2UqSGJObNm4mzfGRw51cJCk4MbMmoTQd5w2MnEccPC29FU1cwEsiOlsrVsDaeSR1TZffuRr+DbD34eP9/4nUK5te2BRXFhmzVIMC8+854/wKIJV7F+WLSEe/HYzh/jP+7/azy484d49tADeP7I43iebfbYyZOom9SA2rIG6BkTjQ0TZWAH+49vp3pOsx3YapjFY/5JRyNj62ONsQ+hBBiU6a7Dii7dEwtQTD6dhHjz/HeiPlrDQtPRne3Ac3sehhthB0fSkkMFziXPUQVuoB7KsvfQMCHahKWTV7JNFlSfWaQOpnMpnOw8SsXH5sKCL2eP3Vw3g4UgEwaF3l4OfKmnST2vYRm/Y8XRHOw7voPmTQfDyuNQy350e21SUzGhagoWTl+s7vdlpoW/+zkXEyqnoLFyMiuXpvw8yAraljzL3l2DbYlJ6iObdWBFaBqxYv7w0e9id+sL0GIkYYcmkV+H2xbdhd+88y/xGfa0b5n7LswtX4JIJoFMOgdXlK3MGlMxy0kjWT9HE4vmZm5kje+VICpdl8E3Ktp8nuTNeEyuasKv3PabmBiZBo+mYQpdePDFH+LrD/07jnQdZN/fA6OMGRv30K2xHA8/iS/94t+w7fRGKg8fFhXsfKqcm1e8Val7SyaTGIQ0ErUs6BKBLFJWY8uC/izu6eni/z47AzHhZalIwY0YJP24XYnVc64i+a2ieoqqMLe1b8KPN38bT+29D13+CdgJmqSRBJIVrdjW9iy+9eh/4SfPfA8pt5dkRgtAr8W1829HY7QZDlWqrNcLhKSHdb6V6vyHz30D333uS3ju1INoj5zFWa2NnW8HEvUJNY6d7O3FDfNuw4yqRTBpxXisvRsPPIofPPElHO7ah558O/IxdsyRLLq8djx79HH88Pnv4kTqCMuVlhiFxZuX3omGCrYNOa1CGh2dTMyMFzFdUgSoi2pij6qOMpLK75mKPNYtvYNkyAYSj7L3OYrdx1+AHY8rMvEzGs29NDYd3aAWBYuhFKN5ceXs61GTaKBuyFEPBEM2px9o2aP8EdNYrptWP5M9oAyiywwcFWnGxewmKjCrgYWTR9LpwY5Dm9nTpVXjPHnuGBv3Pqn7NK3LsXLBlUhE2OuKH74s0vYwtW426subVPkKge4+toVE3g6ZkFVqhQQYT5QhnaF5Sqto96kX8bVH/xObTjyPpE6ThTfaTgKzqhfijjV340/u+Hv8+T2fx6++43dw44q3YHL9DMTcSljZOHvNCCLRKCKRSEGdjBVIgCZ7bFFEonItNsy189dhZt0stQxDt/LYdHgDfvDkt9FtnGMqK2HmqCLT5VSszB8nTiLkNUefxY/Xfw/JfFdBudKfmxa9BXWxBkRIMmJWOlTGQgSXAkTRyZ50IUDJXYmawPNyqkPkBVTypGzmz2is8PBcH5Nqp+LaRTeqPcRCUN1uBxXW/8Xzx56AmTD5fS0qeqtRda5atWi9LI+zzlE8tuN+bNz3lFoWlU15mD9hJVZMX4mY2Dc0h4Mg2dzndOEHj38bP914L06lj5LA2MGZZay71UynjE9GkCWJxiwDb1t7N2rset7JMHtb8ABN3r2texlv5k+WZnymgnW3Cna+Eloihye3PoQth9jh0XJz0nk0UlwsnL6M9SMmSVPxl9OYhAnGA5dGreqH54qZUzDh5GQPOBEsn38NGirr+FsGskLlhV1bkCR56D4bOAvRSVMpxjTsP7sbO/Ztoy95ZHtcLKQpNKmxGTkvy2v7a+kQyPl5Ow9sQ05WtbPkRXjOmDCbDS+qBodFTYqSmT9jEaJaVFX+ts6z2HtoB3vQLDK5DDpo7u4/sVORm8E4T504E+WJchJ4BC5tRFn7PoGmRVmkkrWLhU5SPHxyLzJ52cvKODBuSll6sszBVAciOJEkNux5HP943+/ihxv/E6f6DigTISdHejkaLDdBolmEty97H/7ojr/F377v3/BL1/0KVs68iiZjBZJ9ScYtzZx4hcmOEUPoVRSy7HKxUBmdgOWzrmejZ3rYMfR5PXjqxSdwJnmaFV/MVGaudDR8iVlnRKlYaTpX1EWxZd8GbD+2GZ7pIEc1O5Gd3sxJc5TSynoZEnpE5c+lABlSkIXtYt6qv0l2AjF7xeRXZ0SyAuvq95E3L+kgZ0+dT9N+sRrqkBn8DQeeRkvrftZ/tpl8FD1JVy2Uz1qdsDPVrIcRtaPpRM9BPLT1frTnTirFViFKcv4q1ERZP2VeMAAiIORgj80kqaTWh8pqkhdJL5+WceYcHdPLNhHVY1g8bwVmNCxWw0V5I4s9LVuw6dAWRBqo3ssY8wiNWGaBjInLKTgyYuX6SbywfT3rf59aASEWy/xpixGR3SjiN8PXpA5JgxoHvFRCMlRxoSvMlAx1o4Egf2Wlu0ypi6qTzeSywPLKqTfwYjGzIjiXOoNtNHXVwZZyZhy/N60cItLTphxsozLsYu8oi4hryuuxevZqJPIxpPvHYoY64UWR+rtaNjHz+UcWaK6m+SZms1WBfDbH3i2OuU1LWciFNVObj25CS+YU27Js35KtQVm8uG8L2r1zapvSpNg0NNVORi7XDYNpyfsm5k2bw0rDSLJMO3rO4kzXGaEOmeZR8ZCClzFAGQvkD4wX/7M0HOk+iG88/t/4q+/+Fr698QvY27eJpn8akTjtfzYyg+a/DChPqZiH91z3Ifz2e/4P/ujOv8Ft8+6gIosjzWtluY9P8zLHDsSSMR+JB5l+aF4MuGD0V0aSvvqsZfhuqEYvldVnGmuocGdVzWGFpz9M256T27Dj5CZY5RbSXbKo16WZy4agZ9TeXMdNkcxzbMGMJ43jHzzzVXT5PfTdQ4SNa+m0FYjIchKWnS8r32UJiERvqCsCicVL//M/lb6Xvr3QDRv0R7VNpl0gw4vslqhamEbp4ByqeBnDdh01oRcEuV0sHeWFWibDHoO9hkVlJVsmZdWA/CQdsAwFrZx+DeIsZ+kc5LDbTQefRlZmnqRKsU5aNomGgjpnpUnObDssJj8nh/+6NDcP4GDbPrV/WYZm5lAYNNXMIlEX6l5/5jC0AqSDikQs9LA+Cztkk/yP5m1e6gy6mUbZSip1z8DaabdBVrGIWEj6vdje8jxyZi+reo6WUgfLuZvl3cuOjdaSjBmT32RVxsmzx0jOJwGbhM5GWB+bgJidYGcnu7dktQPrlgwrs11c6BiPAHexeIkAC8Uy1I0vpEczDFFibKjMmCkTp6o1cWQI1o8IG9WLVBSHYJIAHMnNPHsym0TFhqJ5Mew8sR+nOk8gXm7DNhNYMXctaiL1agA9EMy3rJ/C/pYdSnXKRvaqshqUJapZ0Cx0N0fzowl1FRPlR7V9bU/LbmQNWT9lsNCoCuHgVNtxnMu0siIAlWY1ptTNZAWT8UgTiXg1JjfQ/JXOjS2njeTX0ddJotBZ/mzcvEmZfrJomuayKnw2CtlgpxtR5NhV7z67Hf/z0JfwB//yO/jsP38a9734Lezr3o6M3qPITMZKI1ocTbGpuGHOm/CxN30at6x8M/lKxhDZaGQdGWuUDCpLvl500bLyq5vpl1pAIARI72TEJhJJoCpewTTze1bI7mQHOtPsFHiBmMeStwJJq0DiYrEx5NJscqaGQ7KMhHlmCbHyVV8xgWZTVClzV802y7eFqA92rwTVLgr/qb8VSvVkCArCRDqtQp3SJfP5tzRCQ23rYjyZZhkWYGara4bCoaUjO3LYnOkBCYsduSjp7r5uZEigUqD0UXWEJutIU0Xh9CGf5CDl105VLSUhcZfJMNlrK1VcZ4fosD4rb/PsTJl3Xek2nGwj2fBLKauKeA0qyhoK5dSPQbnDuLPmMcwsOyi1jdSjupNhDpaXLB8TysizXltUwZMrZ/BvWm28riuTQqrTRYM2GVXJRtTmJqPaaUJlbgLKMw2oSDci5jRQUDSxntQinSXZMSybnX5tvA6VsSrWEelMJWX9ncw44OVcuAQgS0989qSyi0FPWbh64XVorJ2gOv+udDue2vQLqqcjqjAyspcUnfAN9jhmB/SybpzoeAF7j21k5WQXyHyc07QS86dQSbCCBUEKXszYwy0HVA8mkxYyfre4eTm8LHtT9siLp5NE42K+6jjXexYHT+xTPa7M2Eqll/nJ9t7TOHpmv1I4st5qwWSGSZPZpXk+beIMVeCGHNfPinq0/ZA6GVgWbctaLzGZ5HMQ1CJaMoYsMZGJg6TZiX09W/F3D/4f/OE3PoO//O7ncN/Gb+HA2W3oybHHZqI1R8fM6nn40PWfwJ1LP4gYCTVPApFZPdkyKJbkaAzOq56XeSA+STqEzHQqH4Eol1SKCo8NvXCwZ3B4cr+oB1HWcjCpfBbCEqqL2lRD9FOOnxLFX1gA/tpD4iJr11ym7WXikAkhKiyWvfwu5rqYyXKqSxB0mvZymIec+C9j1LIYWLdoEZSTQG12LSwryVjJnzLWvVikQv0tw3ZSX7t6aUEUIVchMCEuZabTSTnICTMyucisVeQm48PyWylQJqlipULaYrGoGuqRZUzy/YTIFPzaHX+E//i17+F/fvs+fOW3f3yB+69f/w7+9TNfw+fu+QssbFwEWTwgpCfrY2N86Y7FPlaGwJSmLgQ8xghuea8RdKoE6TlFsTREG7F86pVqgbJUtc7uLnR1dKmDLCv8BjSa0xDPlaPMq0LcrURdrFHtpDh9gr2jT9OPmRtFAmsW3og4zecgqEIl6R1uOYhzsneRuSE97bIpa/m1Q/VWg2XTr0NClmLw0mM9h6gwj8OKyN5PVnQys+wM6KbSefHgc8ia7DWpDBc1rUJ1ogb5lI7Zk+aiKlqjKqWs3dt/dh8yNPqEMFhVVUWW3j4IcmKxKEQhTo+NJK11I53vYPg6yf4QHtz6Q/zj/X+OP/jer+Jrj/0HDrTvIiHTXExqaI7Pxsdu/QzmTpxLBcb4kmTleRlC5NIQRg6JNT0a1OCk8cuQmHQL0vAGntcyWG0MxoDpIu9CfuLUN/xPxv+E9Ar3U5UU6STGG1JnMpkMMlkZBng5I6NRWQ8p1C2do4wTiooLJim1R7yfwEQJG9LJqTRH+jsFdhpSTnxJnkZIWgNBOW4WvWlZYP1y2INRKAeGzTyV/JPPKl/781piKJM4/EH9PVxIGQ/4q8qE8VI7bFgs6o1pqLJqSYSTUYNG1MlBtUPcJG8qJmMmJpvTYWep9V3GRjpRWjEy/q2UjuwdZd7J3ufxwKVRqwZA0lfin6bWFbNXYk7DfH4p5hUwuX4KPnPPH+Cff+ur+Odf+y/8929/Fd/8oyfx9c89ja/8/tP4z995DF/94/V4yzUfhG1E2OBp8rGw5k++AhPi0wr+D4FUCStq4UzHCZztpJnAegEWykIquHKa2fV1TZg9YZkaZxHZv/PoC0hTKcpYj8EKID28NG6dvfmeIztJhB2qB5tU1YSpk2cgZpZhZtMc1b/JrpQUzYr9p/fQXhWzkemkUig08uDKrHhDahcrhRBzhOZCxLCQ63QQt+Mor00gF0/haHIvvvXMF/GNJ/8bR3r3AzEZIzVQE23ANVe8CQmrjo2AlYphGjQ3i6mHUiDtaaBRCVRnwn+ifuR7UUnSiNVv6v9gqEbFl5g+0rBUodAp80tBSOCVfBh/KAKkU3kgUeaHiROnqLTLciSVL4xyMeVrksxliY9F1SjLR+TsQy3FOttjogzlMOVUISFGmtQy5ifkOEA8JjuGwvBDsN8DZCcKVT6rzolOkSFvk7yWe6VjLQVCnBKiSrPEhQlX4eQkHHZ0lHOtmeM47R7CGf84TmWOXeDacQbnvBa+n0SrdwZnvVM4neP16VPIGrKqQjpQxpkRLVWhXiwGatklASEJObVZZ8GvXLgKCb1SEYrMTsg2oJmV8zEzfgXmRhZjujYJzVYcE41yvteiwSvHNDb4KXXTkZOCl204LJz6yglYOGNlIYAhkOUnBsPrpUl6rvsMv5DMp3qqno7Ksjhq6xrRWNmIfM5hgQO7j+6gyS0FTpOFhSSVTMzJsspKEugZ9KY6VY7Kw4OmNYsfVZhQN0mRlzSULE3R463HSKY0nEmessRBlE4xpVBY/Cs6kaaB9JZZEphcmtCokakKM3lYmSiqvFo45Wn8ZPP38eNn72VlSqlxdcFiqug480fUCfvt/nEqJmYUIQ1BGoZ4K41UPsq7qM4CMQY3VkHhZyFl8af/i4EfBPxOPkkYlwqE3MVJ5Appz2NyUzPJprA8RuqGdGrFCJC/wmddUA/IilRh+fw1uOOWu/DWq9+OdatvYZ2byPISI5AvP8t6JoqxoJINw2adjao8K4aB4YKBPBtQhZKRBeLqn60uAQPpFG+kjQyEHzETSu22dB/Df/74H/Dn3/pN/NW9v42//v7vX+D+5Pu/ic/RWvmTe38Lf/id38D/+d/fw5989/fxtZ9/BUfOHYKdYIcggoBxk/YyHhhEgBLiUBeMwQs9X3YvZ9JQN1xkLBpwXhfm2wuxcvLN7BG6mNlyIpkBR5aBeCnkWCGyJLdshH+zROXxg65W2BYmkxSOm0SW18o9cjRQGeXWDSvfrE6IcU0PSaowOTnFljlYWcTL3ivjtmP7iV3oY5pNFqatpTGn8iqsaVqDqE6VZ0VwsucwNh9fr0wWrf+0YjGFZQeDjMu0eMfUoQMyKSEE9+6rPoEaZwJN0SZmTGGt4jO7foG0142InJlHs1yOu8rR5JeTleX4omvm3ow/etPf4Y/XfQGfveVvab7OoSlPW942mMYYclnZc0wSFDKkuSCNQmbLs0x/oq8aDTUVeGLPT9CdZx5Jz+wnMTExAQ2VNXDySSpVCYvlIWPZRRBcfv1l6MtZfawXvqxzlN9sZa5k3QyS2T71LI+8do5hWZg2ayn8TIpilGWXkyefifw43/lJORgixetzaKqaiwp2RkpnMG0nO6giUmeh01zTNOaxl5ZsvMApeaTq6kA9ky+DIUkJSp+8hLaHuqDw3HwUZgXw4tFHkPQyqrHqTi+unvN2JJhuOYRUp4qTk8E11tfA8Fyb/rNDYllG9TjuvOLD+MzqP8Vnr/1rfPzGTwMpkhMVvJxxmerqQgfVkpybF2ev1p5Mo7m+SW0C8Hy2OznTj0pSxvYc1iVWPZYDO85YhPTJDo91paGyllnEPO+VftFAS9vRwmGpRcAoqg5MMEB0unTaadZ+2XGk59DHskt5XSxGmvxiEVka2ru7cazjEHadfg57z76o3L7Wrdjftg27Tr2AQ61bcOzcAbX29uCZLThw6kW0tB/Hge4tzEd2CGl26vQ/miAJutLBSNhDXTAC87mIGwzmyqUD6UlyWQ3Tp8xFeaKMmULTgKbCV5/9N/zHY5/HP/78b/D5n/0F/t/9f6ncP/zsQvcvP/k7/MdPvoBtJ16AHyGhsXLMm7wQy+augE8FJVvL1NhUf0ZIb23aMbR1t7GRJQvfsSLPap6vTpmGnCDDyrLj4Hb121CIX+KHHHe/78heOBoLji1F9nrOnTEPEZuNn+Umwzh7j+zuv+t8aCQw29IxZ/pC3LD6zbj5ylvwtitvw9xpKxl/EmU+xUrdhcq6aqSZhiA4Zg7JHK+jqpBZU5s9qTw8iVWTYUf5OVrYP8pm8ZJ1OSJQDVDhyOyubIcTFS2P94zalepw0IpoGQm5keolw46qyKEAMZIAO6U8yXDmlDkoi1bAycj+Zk895lTWUTIY1QgHyus1R55lZWu0GNrQ3ncO8lQ4g/k72Z5MS2MZ+lgGKXQrS0GWIAVBTtQx4xaSfWnUlNdhysRpyvoRtJw7ixwtERlblvYgFsKZnhY1Bi2nGtVXyHj3RJYh/ZZZYZoEsrZU1KGY1J5uwo7p6EmeJTHmUR1nB1jTzLbE/IsA7bk2NYZYanZKlyCWmaxPyDMsl51Wl0y8kWB1knVttBYTGiaiq68HZsxW8RHn9pviouxkqVmWxCaPeLDL2K7sDPq8dqrRrFLLMjkjajeZzNESHP4jV0eCS4oApTeNm/VYNudqJOw4zYQIG3UO33z6P/GtZ/4L393wJXzvua/gfzd+Fd9//n/w4xe/dYG7d/PX8Z0NX8Vj+x5COt/LXlhHtV6PG6+4DbYTJSHJ8eH9Z62RCaSDs9hYT7adwKnuQ2rCwWAvv2zOakytm8NI6UhSST2944n+WJ4PIUdRLXJK9ZZ9W9Dht7GyUKkhgZVL1rBQY2y8sq03hc17NvTfdT409npJVsr29j7V8xtymohjYe2CN8N0YhSAJO5yk5WLDUtWGQcgktCRpWkej9awl2eiWNnk5Bp5mp4oBciyCDHFeW1/WxsRVINQwUhDNdCRbMMJmjFqzZjjY9aEaZg3aSG8rIuymiIB2pLuPpQZVbhhxa2I62VUEnLkVhf2n9itTEAZay2YfuMzJvRqkIfDm1Q7J9pPYMvhDeQkkpBvo1arweq517HzYXxNNmibOVSEAGXhqlgfcrbKstmrURdvYF1nrSGh7Ty4R5GoTFjJGLOcubfr4FaqrW5mtoEo82F5M+uVGWM5UqVRhGtqr6ccy2rS8qG1QeVZwfriszNsrpqH6RMX0jJimJaL/ad24Wz36aLkXBQsQtl4IKaptBk5VGPnkW2qc5IytuWkmpmL2JEXdnRIeQ04NSzC+igL2qWzlKERJ5dGKtmDKK0o2QMsh7CmaTFE7Ag7AzkQdnxm/S8pAtQcD8tnXIWFU5ezovFvW1fSWQZGZRYwSlmfSMTVIYoyVig95FCnxdhs4mnsbdmO9nQrKwmLg/+WT74SU2pm0NSUNXFUHdJ6qVTkb92MorX3DCW5rAdkwK6BqfXT1fY16SnlOQ57Kd+DIASojtF3NJzuPknZv4vB5Vm5Y5g/ZSHklGeZaT5x7ijakrIe60IIiehMz5HT+9HW2wo9xoqjRbG4YTmunHMdkmezrMwa+vp6aR7070EdglwqCy1lY1HzStTYFVJf2VAj6Mq2opNKRXpt9XwOKsLRUVMyE8hQxLRiaH1UqJuPP8Osk2USeVTqFbhu0VvQmJiObI+YMxdCDsS0vRiWNq/C0imr2VnJ+C9wqu+oGm9VC3xZRh4JtfCYgUsAKu8MdOa6sfHAYzjes4/lyy6HVuuqWdfhulm3odKvQKo3rcbqguBlSW6dHpZNWYNr5t8MQ2bpoxo63E7sPvEislof64NMaPjs1HxsPboBR9p3FSbpvByWz7oa08pnwchE1OnMUt+kkqtlSay/as1l2kJ9pBk3L7sNVUatIp1OKrbn9z2jzvIzJYASIF5Kncq7vloDKMtftux9Du3Zs2ynbHvsBJZNXYnVs66F08GypfITJ3VEnBBgL+uvbDN1ejw0UDGvW3Q7Gr3pFD6WspQsdn4y6SNqUZbtjAcuKQJMGBFct/hmNFVMYma7SPkZbDj4MKU9CU+TUTubfZzFhsx3cerv851Fk7W6ogrHThzB/hZWTsptSeXEsilYPGsZMik5docFInYgiUeOFKdRyB42hcOn9qp9k1LQCSOOMjFfWbEOntxNZVeMvPrHSkgEjuVg/a5n1fYeOX6rpryBTUUmOfI0f0mMUdlJcSEc10R5TTUOn9uB9fsepD8ZEomOKi2O99z4flw1/zZU202oSlSykgc/wLtcK8OKaWtx88q3Mg/kqXaSbg27jm/EuZ4TkLkPMbPYlzA2ksIRgh2LanhMtxqkp7p4Yd96HDx3kMzLToVKduXMG3HLyrtQG5nYf9P5iHhRNpi1uH31O1GerxJZodTLUzsfxzl2SLZslyNxy7INUYGXAmSdp8/yEqLfeWwTNmx7GGk3SeWVxuSKqfjQ1Z/ETbNuQqVFc75IPifyCSxuWoZ3XPUeTK+ex2KSrWQeth55hp3wVmYM64nUW0Jj2uWhTs/sfAS9rpyj6KCuog53Xn0Xlk2+Qp3kIhMual+8msRz1KMZyjEJt191F65ZcG1hBxB/P9p6CNsOb0ZebZ0qrUMRYhKzW2an1Yw943GGHf5Pt/wQKaNw4vSkiml455r3Yhk7NCkzIcCBsUSBJSY0zXh5lvftq96DX3vzH+E33/qXqKpoQjZDs5jWWTbbBzsis8D9N40xdOnQCo7VOcAFo9DjnO+KYWCC5Hwn5CNgKC+9astqsWjqYhaY/OahJ9uFXSfZIzoZNdGQzqbVu6wVFBNMTlse6mRmVPYpdnV3YteBbcp8FUJKWAkqskXQWHlVL8kKoabvGRd1eCkL9FTbMfUAGKksQmiyLpFFjSNnDpAYg4mnMKsma+FExdFcObAVaUdW43vqKV7SdcoYzaET+/rHhZjSIc73aL5QrZ0geTy6+T6qyB003zPQqSoXTlqKz9zzOdyw9M2Y2TgLURJ/hGaGPJM2okdQTrVXR6K9at61JMt7sGbG1QxTelIHZztb8cLeZ5DMdqqlFxJXT1TC/9/elcfGedbpZ+7D47HHd2InbuycTQ9SSI9lu6kQV6k4CpQWVA4VwT/sCmm1EhJaFiQOLQhWYrV/7GoF4m6bFEhFaaGNaEuakjQHNNCkSRynduJzfI4947mH53lnkjWebxpPHDtd+Xuszx7P933v+Xt/53tUKfcuatEsLFtDbVf8Xv/rRxOZqaihb7QXu/c9jGhi2BzdWedtxDvf8n7cfccHzGazfpptiuprpU+NN4SNLZvwnp3vw86uO8gwixt/nh99zRwWpE0jpP0pWmm2NKN5z+zKLlMM86O/JfCDCabMw6V7VcCqrxRw0LkuiqZrM97DJ19A/0QPPAHeIx3csPZG3H/nx/F323eZOas1nhDNQ5+5any1ph3evOE2fPDO+8mcdsGvYBj7ZHBiCM8f/TWGJvtE2WQeonHRlIvadQwvUbD2RnuM6axt3N62/V14z23vN8cs1Pkaito9adBHZiof4a433YO7d97Ldq4zTGiGY+nPZ//IfM7DGygKZR0TYdrFtFfxgwlo6pN+qd9ZGt01J83JZUQ60gbAekr0/JujT5i1w3lphlkKtA1vxQd3PYBt192A5nCrqbeRxWyz+mAEayPtePCeh3DfHR9Hm68LO7rvwJ1vvYsMU5OzZdXJTSPTf/k0wPn96bj1SzoX2FS5eHcBjJmzJOj98jTEXKjYmfV/Wg6TSmRxz8334V8+8GWECjTh3HnsO/srfPsXX0UsSZ16kdCJWlkOHhoPaK+5Dl958Lu4ObLT+F16xnvxzUe+gpcHn0Ww1k+TMotgKIhEfIpE4UE434b/+PT3sLF5i0lH86cmciP40o8/jz+N7ufgZYEXQIQkP1U2L+duAQ2ODnyNed7YsR1eSmIx+uHUIP79F1/A4Qu/QyFdbsKqjXU4kpiLO+PBW9bdhvvuegC3b7ybigAZdkErRjIYy4xgODaMcZZXPhTlGwk0or62gWZvhBpixKyhdHgLODvZg18+/xgef+UHpVyuHN//p6fQXdsNV8aJgVwvPvudBzBRGDFBloXQVJD77/wkPrLzU2jytBmtJFVIo2+mDxfGB8xSQD8Z2trwGnQ2dpjdQBysM1V8vDLyEn7y1H/iwNDBUmqXh4daSdrNtk+78dm7/hkfvf0huGj+5XxZfH3vF/H0id3Q2lb5vORXMxJ/CRBT1qoV49QncxZz6erqwr+941voiGxAwBkxPCPpSGJsdsxMnJ9Jz2hIIxyIoIlCvsXfjDo/NV7NG6TQfHX8BPY+twe/PfNIMZN50PDTsrt81oVbN/0DHnrbP2Jr402m7bWKRHtXvjZ2BsOz/YjnZsx2V52NXeis32wEjvSM4Xgfnj7+OH6+/1FM5keNn9WRkTBLU7DnEUo14Buf+C52tFN4sp1OT5/E5//nQaT8ExTCVAQodBV1tprWE6fC8L5bPoyP3foZdDZsNVZGksw7jRn0Tw6if/wcFYJZKiXacb2eQnwzGXQbFQy32Vmpd+QsvvrM5xCNRs04MGNB7hq279Jx+b52te96/TNBlosBassbRRG1/lVqfA1/7v37B3F9xy1UnhxIONJ49JmH8fJrR9lh1RCttAbN28thLpZEB4lB0VWtMfXV+DCTp2bYc9TcLxifGJkgB6Sio6l4hhrom7F13fVGEskMOTd+Cr86sAdj6RFjii+EZvV7PF6kUxl4mX4ylsbWNduZzk2stiLIwKtDJPDf70EMk2SsFro9B4xqqNO7tJA8OhZFT98ZtDS0IFQTQIDakiSonOZr6zrQ3bABm5o3o7upm2bHWtS56uAL8BlKZ60d7pk6jt0v/C/2HvohXKzbUvGhHZ9BvV/rfB2Izo3hqUNPIp6dZRuV9+t0rA+Do/2Yzc1hTccGaiD18MOLZk8jups34Mb267GtbRs6yPiCZNqK8qepXR/p24fHXvweDvTsY7tXV+aMI2V21d65QedP3ExtmgyPA/vQmd/j3MhpKUaGAckXqxULS0FxCaQYvSboF+lBg3dgaAShSBitDWtN/vKx1fjCWB9ai67WbmxiX60Pd6DR2UgTTyfgOVjvFE5EX8Ij+/8bTxz5EU1+TTP6W8hT46a2mSFTGRoewujYMCJNdWgJMB/+1JKRrqvvxraWHbi57XbSxDY0+dtI7TTVSQvR9BD2vfwkfrl/N5nkBW0GbY53cGZl3Shcp3nzYdx1wzvRro2BWS5th/Xs8d8gnYvTVuAYLXqL+Km87QKeOdLqKQxMDqCpdQ2FMbU+MjdP0otWmurmrOa27djUsgUdFKKhgpaV0ipyTuHFnifxX3u+hvM0pcVn/H6/ESiCGX8rgGvGAKm8cLBnKaV8yCZyaKc28N6330vzLoQk4uidOIFfH9yNWH5YTxdfWgTEBMQANY1A/i6dirauYx1CXreOmGZ6Ezh++hCllM6nkLTJkLFxEJKRiSBa69dgy3VbzPkO05lRHO45gAMnnkPeS5PMbLn+t5B5qCCIV8vlOMAUWQ4HavGmrbcYyZ8oxHFy+Dj2/+U55KipKMZSDrkJWBo3TWEviZ0/2m362KkXcfLCK0jkNLWARFWjIIEczmSsTEjzr3IuXp4MxucGaSKdxjN/fAKP/u6nONh7EEl/Wl7RUh5XjnfveDeFkJNazSwGE2dxtOd5szO0lVhqqGum5jONU0NnMDI9yDbTDsMu+DWtiUxJ7+iSHJjOTKMn+iqePrYbj//hYRzr/xNS1NbcVTAp9R/HujGpb1h3EzpaO5AiQ40lpslU/4D+aK9hWFoHrSVXTkmkJUBTnuQLy2aL7gz5rTRo+yZP4uS5lzEwpqWSFLekNzNTRb9EI7zk2ck4s4gmB83h7L89she7n/0Zjl04AkTY97nyvpIPVOa/R7skOXMYiPYbpm7WdbPfZc6K2epYWHEpfT9XSGA4cR4vUJg8sv/7eO6VZzCaHILTp70M2VjU/sT5sgrekZ7CwXrc1KUDjxrMTj0DE704dGo/EqkZo9GZo1vJB6wYoPZvzNHiGCBzPXXhBJKpGAJ+bcdFZs6sNB7U/hojGtcaf38ZPIbHDv4Me4/uQc/saYQ4XpS+2lNtKeGiS/8vN66ZCZxXhEgTfDMZSqAgtUAfOpuuQ3xqDrQdUSDDOT95loxH54zWlt5aDEQEOaPmay+/QK4Gm9dfj8RQDN5gGM6aPE4NHIHTTzOAhJOMzxg/TZr5JTJJrPF2oh7NxgcTrPUUd9OIDSDYGDSHYS+EBrXmQgXctZjOTpFQ3Wh1taC20Ii5RArhSB1Nk2m8NnEOvgiJWCdIL4CknZhvVptqKpJNKay+d5DAU3FqmGk/2us70dm2ES3hVjT7W6nN6rQwMpHEJMZoVo7GejE1M44p1ifGemSZjocaqaPCkYjVoNOzjmZryAyeOecMjp87DJeInBpOGVhWl6bk5Oco2KgF+huwvqkTjfVb0BppQzhUhzT7fnx6HBPxCxgYpfk2dYFMSxPafRxsPngLs6XELg8fTSWdHxKPzWFDYJNZjzqdnjabUPw5egyTiQlzUJHZf46WhCYXLwXqF3OYOAeqLtN3ZFKBBoqtBBl8XMvZIuhesxmd7V0IBJooEKmdk3HGZqcwMjGM8UQ/6x/FeGwCsWwCeZr//nCA9qSVn5maoubOMWNtQKCpMWImhaQbTXUt2Lh+Czau2UqTutG4ShLU2kamBnF24CT6Jnowk6UZyzbyUNGQy4S2rLm0+7oOdI87Y+Ys4M11N8LHsSL/dUtLBIf7D1CTdXJsBKnNz5jpK/KLL4QHZJquWbbvNNu2gNp8EPXeFrRFtmJtcwdaIq3UYD1IJOMUjD0YmhjEuaE+RBNjKNS44K0lA58uCpOLjE/CRVi6FmjN0+bjmjFAzfb/Px+glwM9TXWa+oqXmgYbIEuNSFNfPOy0vAmKLA4ySbWwOk2pKUmdS+XIbCmpA2xgdg4FMXttTu4XVtkFZ4ZaUiGETCBrfElOErDPG2QnJHlfzljtTuNHMp2lKVpummkVg5zbyRiJksw1kZ025yT4aLrKvJfGp8O+tc4xyb9BX/nUCLPwWxJW9VRUhvWWcVIkCGqyMtDT1BDl3+Ntp1sTp1kX+YFYTp1Jy29IpNQESKOaBE39gwyI2pFvaRqPIF9RRkdyOjzUbtimOq/Fpchseb+k0lOGWbqdAeiA9AyfzTnS1GSSCNMc1vpo9Y3xi5GByByTlqBtwHw0h3WEQEEh68UiybYL5k1wLMzByC5FKpBAaoL96U+RpoLsj5DZ3km+UeZUevHKoCCBOUuXg/Mi81M/xefiNG29Zt+95FzCTBcJsK91NGvQHaBM12qWBOs9yb6t5bs009nvHtE4x0dmTnMHy2mjwA5lDlLXzCjSFCNpstI8MykyXU3jksHLvhdj1qqgrBgme83L/0UHbCFjS5tlpQqCKSFaK/k50mRNgtYPBTWZtvoiTs3enXUhRsZY6w4j5KjFFJmVj8zXnGm9AGLeWg8szVqRX+WbVVuTLoPsa6+2dGMNEnl+l9fGtuxzKid+TXrm2ExSSGq6m9pQuMj0xBCXznusedp8zGOA1cD6+WoKbKZkmIFfrKzAZjAjXJ0uX4tU7uKh5tYRIav8jClJohJhmo0K+IzmR+WpYZiJwMzSYzYEYD7sNB2GpMOm8yQqjQ11su4VF6GzDGRAmqiZyVCrLHXSfMiXaO6zM50yXznQKVvZ5RoYrAHrqeqZpUpk7G4O8oVQdFZUaepPqFYsHX/xXRKUPquul2qrNuErpoX4JavLtizezZtyawUM68F6m+k+VcCyTTVYyKxUHnOfFZJGYwUntbE8NWK1tYN1lltA/lWTKs0uM4jULiy0jgM12bGqZi9E3dK/xje7OEhokLeYCLJ24lFeOhxK2oqCUoo4m730FFVU/5beW4iyehdJsgx6zsyjFG2UPuuv2+U1mhprUtTiTQJMUxyZH43g1S+WiaXiP2pT1p9/tdchE+L9ctrQa5JqelVr1w0tlJre0CNf1dp0PWe0J5OmyiPWRzohIzZlVJvrYUHF4o9pLwpTKQ1GuzPFYD+wHIo2676WaWaopBQZU+n9eVAgRoLRSapXFcwMCl7sduOCUsE055YkSyhjUxHzV0xTLoK03BNsg0t8oESzF/9fDMr6z+Dy75cYYLVgBSxgXYhqoPet0liu/KrDSudXCctZjuVJmyRmOMDiQLFX+nS1UbkcZfXWo6WP82HerqKJqmnPKpqoaqw07f5/ya8kS2zYsGFj9cFmgDZs2Fi1sBmgDRs2Vi1sBmjDho1VC8fOf11f9Osum9NyOQMYVvz7jREwEa5FnguxnGVYtrQ1O8ACyxccsYKiINZRCat6Wz1aHFjm45Jg2c4qXunj1cZK0+21zM/WAG3YsLFqYTNAGzZsrFrYDNCGDRurFjYDtGHDxqrFpSBINajOaWnt0GYqpb8LUV6cyvlZfV+pOtZprLD/tSJWk+P58rCiGb1fIQ2Lry8t+7piiI4saKliERZftipJ1BLFRxf/QhVJV4XlpKOVoNEV0ACVhdWlyi28qsVFIp1/VcLVyM/GyqASvVhBzNLqWiqUn0U5KpHYfLKaf1VAFY9awhTDKhGry0ZFqFdt2LBhY1XCZoA2bNhYtbAZoA0bNlYtbAZow4aNVYsrigJXwtKjNtUV5eoEiRafyAoEpRaFN3YEd+moLr/Xi0osBJ9d8r6EVQ6XSsvprMpXociWuApdUilyfRWSXnGaqYTLleMNpgGqsIu9rhas0q502XjjwaqfdC0XrPKqdL0Oqnjc8tEq+bAlLBNeXbBNYBs2bKxa2AzQhg0bqxTAXwFv/sm1I3/75AAAAABJRU5ErkJggg==;" parent="1" vertex="1">
          <mxGeometry x="740" y="300" width="215.6" height="174.5" as="geometry" />
        </mxCell>
        <mxCell id="N7Z78QBXYidxXE_QdMGI-30" value="" style="shape=image;verticalLabelPosition=bottom;labelBackgroundColor=default;verticalAlign=top;aspect=fixed;imageAspect=0;image=https://cms.rootstack.com/sites/default/files/inline-images/AWS-Lambda_0.png;" parent="1" vertex="1">
          <mxGeometry x="70" y="343.13" width="490" height="183.75" as="geometry" />
        </mxCell>
        <mxCell id="N7Z78QBXYidxXE_QdMGI-31" value="" style="endArrow=classic;html=1;rounded=0;fontSize=24;exitX=0.708;exitY=0.474;exitDx=0;exitDy=0;exitPerimeter=0;entryX=0.383;entryY=0.422;entryDx=0;entryDy=0;entryPerimeter=0;" parent="1" source="N7Z78QBXYidxXE_QdMGI-4" target="N7Z78QBXYidxXE_QdMGI-30" edge="1">
          <mxGeometry width="50" height="50" relative="1" as="geometry">
            <mxPoint x="80" y="490" as="sourcePoint" />
            <mxPoint x="130" y="440" as="targetPoint" />
          </mxGeometry>
        </mxCell>
        <mxCell id="N7Z78QBXYidxXE_QdMGI-32" value="" style="endArrow=classic;html=1;rounded=0;fontSize=24;exitX=0.617;exitY=0.422;exitDx=0;exitDy=0;exitPerimeter=0;" parent="1" source="N7Z78QBXYidxXE_QdMGI-30" edge="1">
          <mxGeometry width="50" height="50" relative="1" as="geometry">
            <mxPoint x="210" y="450" as="sourcePoint" />
            <mxPoint x="730" y="420" as="targetPoint" />
          </mxGeometry>
        </mxCell>
        <mxCell id="N7Z78QBXYidxXE_QdMGI-33" value="" style="shape=image;verticalLabelPosition=bottom;labelBackgroundColor=default;verticalAlign=top;aspect=fixed;imageAspect=0;image=https://pbs.twimg.com/profile_images/773245254979903488/yB0xE3NR_400x400.jpg;" parent="1" vertex="1">
          <mxGeometry x="1210" y="294.5" width="180" height="180" as="geometry" />
        </mxCell>
        <mxCell id="N7Z78QBXYidxXE_QdMGI-34" value="" style="endArrow=classic;html=1;rounded=0;fontSize=24;entryX=0;entryY=0.75;entryDx=0;entryDy=0;exitX=1;exitY=0.75;exitDx=0;exitDy=0;" parent="1" source="N7Z78QBXYidxXE_QdMGI-28" target="N7Z78QBXYidxXE_QdMGI-33" edge="1">
          <mxGeometry width="50" height="50" relative="1" as="geometry">
            <mxPoint x="850" y="460" as="sourcePoint" />
            <mxPoint x="900" y="410" as="targetPoint" />
          </mxGeometry>
        </mxCell>
        <mxCell id="N7Z78QBXYidxXE_QdMGI-35" value="" style="endArrow=classic;html=1;rounded=0;fontSize=24;entryX=1;entryY=0.25;entryDx=0;entryDy=0;exitX=0;exitY=0.25;exitDx=0;exitDy=0;" parent="1" source="N7Z78QBXYidxXE_QdMGI-33" target="N7Z78QBXYidxXE_QdMGI-28" edge="1">
          <mxGeometry width="50" height="50" relative="1" as="geometry">
            <mxPoint x="1000" y="480" as="sourcePoint" />
            <mxPoint x="1050" y="430" as="targetPoint" />
          </mxGeometry>
        </mxCell>
        <mxCell id="N7Z78QBXYidxXE_QdMGI-36" value="MQTT PROTOCOL" style="text;html=1;strokeColor=none;fillColor=none;align=center;verticalAlign=middle;whiteSpace=wrap;rounded=0;fontSize=24;" parent="1" vertex="1">
          <mxGeometry x="970" y="300" width="240" height="30" as="geometry" />
        </mxCell>
        <mxCell id="N7Z78QBXYidxXE_QdMGI-37" value="MQTT PROTOCOL" style="text;html=1;strokeColor=none;fillColor=none;align=center;verticalAlign=middle;whiteSpace=wrap;rounded=0;fontSize=24;" parent="1" vertex="1">
          <mxGeometry x="970" y="400" width="240" height="30" as="geometry" />
        </mxCell>
        <mxCell id="N7Z78QBXYidxXE_QdMGI-38" value="" style="endArrow=classic;html=1;rounded=0;fontSize=24;entryX=0.381;entryY=0.643;entryDx=0;entryDy=0;entryPerimeter=0;" parent="1" target="N7Z78QBXYidxXE_QdMGI-7" edge="1">
          <mxGeometry width="50" height="50" relative="1" as="geometry">
            <mxPoint x="720" y="360" as="sourcePoint" />
            <mxPoint x="500" y="350" as="targetPoint" />
          </mxGeometry>
        </mxCell>
        <mxCell id="N7Z78QBXYidxXE_QdMGI-39" value="POST" style="text;html=1;strokeColor=none;fillColor=none;align=center;verticalAlign=middle;whiteSpace=wrap;rounded=0;fontSize=24;" parent="1" vertex="1">
          <mxGeometry x="120" y="380" width="60" height="30" as="geometry" />
        </mxCell>
        <mxCell id="N7Z78QBXYidxXE_QdMGI-41" value="PUBLISH" style="text;html=1;strokeColor=none;fillColor=none;align=center;verticalAlign=middle;whiteSpace=wrap;rounded=0;fontSize=24;" parent="1" vertex="1">
          <mxGeometry x="520" y="380" width="60" height="30" as="geometry" />
        </mxCell>
        <mxCell id="N7Z78QBXYidxXE_QdMGI-42" value="QUERY" style="text;html=1;strokeColor=none;fillColor=none;align=center;verticalAlign=middle;whiteSpace=wrap;rounded=0;fontSize=24;" parent="1" vertex="1">
          <mxGeometry x="520" y="270" width="60" height="30" as="geometry" />
        </mxCell>
        <mxCell id="N7Z78QBXYidxXE_QdMGI-44" value="" style="shape=image;verticalLabelPosition=bottom;labelBackgroundColor=default;verticalAlign=top;aspect=fixed;imageAspect=0;image=https://upload.wikimedia.org/wikipedia/commons/thumb/1/1d/AmazonWebservices_Logo.svg/1200px-AmazonWebservices_Logo.svg.png;" parent="1" vertex="1">
          <mxGeometry x="-200" y="20" width="346.67" height="130" as="geometry" />
        </mxCell>
        <mxCell id="N7Z78QBXYidxXE_QdMGI-45" value="DEVICE" style="text;html=1;strokeColor=none;fillColor=none;align=center;verticalAlign=middle;whiteSpace=wrap;rounded=0;fontSize=24;" parent="1" vertex="1">
          <mxGeometry x="1230" y="240" width="60" height="30" as="geometry" />
        </mxCell>
      </root>
    </mxGraphModel>
  </diagram>
</mxfile>
